{
.appVersion = "983";
copyright = "Copyright 2016 Google Inc. All Rights Reserved.";
customParameters = (
{
name = description;
value = "Designed by Monotype design team.";
},
{
name = license;
value = "This Font Software is licensed under the SIL Open Font License, Version 1.1. This Font Software is distributed on an \"AS IS\" BASIS, WITHOUT WARRANTIES OR CONDITIONS OF ANY KIND, either express or implied. See the SIL Open Font License for the specific language, permissions and limitations governing your use of this Font Software.";
},
{
name = licenseURL;
value = "http://scripts.sil.org/OFL";
},
{
name = vendorID;
value = GOOG;
},
{
name = trademark;
value = "Noto is a trademark of Google Inc.";
},
{
name = fsType;
value = (
);
},
{
name = panose;
value = (
2,
11,
5,
2,
4,
5,
4,
2,
2,
4
);
},
{
name = unicodeRanges;
value = (
57,
104
);
},
{
name = codePageRanges;
value = (
1252
);
}
);
date = "2016-11-10 14:18:56 +0000";
designer = "Monotype Design Team";
designerURL = "http://www.monotype.com/studio";
disablesNiceNames = 1;
familyName = "Noto Sans Old Persian";
fontMaster = (
{
ascender = 2189;
capHeight = 1462;
customParameters = (
{
name = typoAscender;
value = 2189;
},
{
name = typoDescender;
value = -600;
},
{
name = typoLineGap;
value = 0;
},
{
name = winAscent;
value = 2189;
},
{
name = winDescent;
value = 600;
},
{
name = hheaAscender;
value = 2189;
},
{
name = hheaDescender;
value = -600;
},
{
name = underlinePosition;
value = -205;
},
{
name = underlineThickness;
value = 102;
}
);
descender = -600;
id = "0DE403EA-09CA-4A47-A866-F104DE4946EE";
weightValue = 400;
widthValue = 5;
xHeight = 1098;
}
);
glyphs = (
{
glyphname = .notdef;
lastChange = "2016-11-10 14:18:36 +0000";
layers = (
{
layerId = "0DE403EA-09CA-4A47-A866-F104DE4946EE";
paths = (
{
closed = 1;
nodes = (
"1034 0 LINE",
"1034 1462 LINE",
"193 1462 LINE",
"193 0 LINE"
);
},
{
closed = 1;
nodes = (
"297 1358 LINE",
"930 1358 LINE",
"930 104 LINE",
"297 104 LINE"
);
}
);
width = 1229;
}
);
note = .notdef;
},
{
glyphname = g4;
lastChange = "2016-11-10 14:18:36 +0000";
layers = (
{
layerId = "0DE403EA-09CA-4A47-A866-F104DE4946EE";
paths = (
{
closed = 1;
nodes = (
"459 1179 OFFCURVE",
"589 1213 OFFCURVE",
"724 1237 CURVE SMOOTH",
"995 1284 OFFCURVE",
"1386 1320 OFFCURVE",
"1939 1360 CURVE",
"1939 1407 LINE",
"1096 1432 OFFCURVE",
"627 1476 OFFCURVE",
"336 1577 CURVE",
"348 1501 OFFCURVE",
"354 1429 OFFCURVE",
"354 1362 CURVE SMOOTH",
"354 1347 LINE SMOOTH",
"353 1275 OFFCURVE",
"347 1204 OFFCURVE",
"336 1135 CURVE"
);
},
{
closed = 1;
nodes = (
"666 -201 LINE",
"691 476 OFFCURVE",
"728 798 OFFCURVE",
"836 1081 CURVE",
"753 1066 OFFCURVE",
"678 1061 OFFCURVE",
"606 1061 CURVE SMOOTH",
"533 1061 OFFCURVE",
"464 1068 OFFCURVE",
"393 1081 CURVE",
"484 840 OFFCURVE",
"517 674 OFFCURVE",
"551 410 CURVE SMOOTH",
"568 278 OFFCURVE",
"588 74 OFFCURVE",
"612 -201 CURVE"
);
},
{
closed = 1;
nodes = (
"1190 -201 LINE",
"1221 523 OFFCURVE",
"1265 821 OFFCURVE",
"1360 1081 CURVE",
"1277 1066 OFFCURVE",
"1202 1061 OFFCURVE",
"1130 1061 CURVE SMOOTH",
"1058 1061 OFFCURVE",
"989 1068 OFFCURVE",
"918 1081 CURVE",
"987 897 OFFCURVE",
"1021 771 OFFCURVE",
"1059 524 CURVE SMOOTH",
"1078 401 OFFCURVE",
"1104 159 OFFCURVE",
"1137 -201 CURVE"
);
},
{
closed = 1;
nodes = (
"1720 -201 LINE",
"1745 462 OFFCURVE",
"1786 806 OFFCURVE",
"1890 1081 CURVE",
"1807 1066 OFFCURVE",
"1731 1061 OFFCURVE",
"1659 1061 CURVE SMOOTH",
"1587 1061 OFFCURVE",
"1517 1068 OFFCURVE",
"1448 1081 CURVE",
"1545 821 OFFCURVE",
"1576 644 OFFCURVE",
"1606 405 CURVE SMOOTH",
"1621 286 OFFCURVE",
"1641 84 OFFCURVE",
"1667 -201 CURVE"
);
}
);
width = 2275;
}
);
note = g4;
},
{
glyphname = g5;
lastChange = "2016-11-10 14:18:36 +0000";
layers = (
{
layerId = "0DE403EA-09CA-4A47-A866-F104DE4946EE";
paths = (
{
closed = 1;
nodes = (
"480 1232 OFFCURVE",
"686 1291 OFFCURVE",
"1067 1354 CURVE",
"1068 1340 OFFCURVE",
"1068 1326 OFFCURVE",
"1068 1313 CURVE SMOOTH",
"1068 1258 OFFCURVE",
"1062 1188 OFFCURVE",
"1057 1135 CURVE",
"1249 1246 OFFCURVE",
"1497 1307 OFFCURVE",
"1837 1360 CURVE",
"1837 1407 LINE",
"1488 1434 OFFCURVE",
"1209 1489 OFFCURVE",
"1049 1577 CURVE",
"1057 1518 OFFCURVE",
"1063 1462 OFFCURVE",
"1067 1409 CURVE",
"735 1436 OFFCURVE",
"466 1492 OFFCURVE",
"307 1577 CURVE",
"321 1498 OFFCURVE",
"328 1425 OFFCURVE",
"328 1356 CURVE SMOOTH",
"328 1347 LINE SMOOTH",
"327 1275 OFFCURVE",
"324 1204 OFFCURVE",
"317 1135 CURVE"
);
},
{
closed = 1;
nodes = (
"760 -201 LINE",
"785 462 OFFCURVE",
"826 806 OFFCURVE",
"930 1081 CURVE",
"767 1053 OFFCURVE",
"627 1054 OFFCURVE",
"487 1081 CURVE",
"574 848 OFFCURVE",
"606 697 OFFCURVE",
"642 425 CURVE SMOOTH",
"659 288 OFFCURVE",
"681 80 OFFCURVE",
"707 -201 CURVE"
);
},
{
closed = 1;
nodes = (
"1448 -201 LINE",
"1479 504 OFFCURVE",
"1519 816 OFFCURVE",
"1620 1081 CURVE",
"1537 1066 OFFCURVE",
"1462 1061 OFFCURVE",
"1390 1061 CURVE SMOOTH",
"1318 1061 OFFCURVE",
"1249 1068 OFFCURVE",
"1178 1081 CURVE",
"1271 824 OFFCURVE",
"1297 684 OFFCURVE",
"1331 434 CURVE SMOOTH",
"1348 309 OFFCURVE",
"1369 97 OFFCURVE",
"1395 -201 CURVE"
);
}
);
width = 2093;
}
);
note = g5;
},
{
glyphname = g6;
lastChange = "2016-11-10 14:18:36 +0000";
layers = (
{
layerId = "0DE403EA-09CA-4A47-A866-F104DE4946EE";
paths = (
{
closed = 1;
nodes = (
"1200 -213 LINE",
"940 163 OFFCURVE",
"768 429 OFFCURVE",
"668 602 CURVE",
"773 793 LINE SMOOTH",
"888 1004 OFFCURVE",
"1035 1289 OFFCURVE",
"1155 1530 CURVE",
"1116 1552 LINE",
"813 1165 OFFCURVE",
"457 767 OFFCURVE",
"250 578 CURVE",
"630 269 OFFCURVE",
"869 45 OFFCURVE",
"1165 -246 CURVE"
);
},
{
closed = 1;
nodes = (
"1417 -219 LINE",
"1448 500 OFFCURVE",
"1491 800 OFFCURVE",
"1587 1065 CURVE",
"1508 1053 OFFCURVE",
"1438 1045 OFFCURVE",
"1362 1045 CURVE SMOOTH",
"1283 1046 OFFCURVE",
"1216 1053 OFFCURVE",
"1145 1065 CURVE",
"1216 877 OFFCURVE",
"1247 759 OFFCURVE",
"1285 519 CURVE SMOOTH",
"1304 398 OFFCURVE",
"1330 152 OFFCURVE",
"1364 -219 CURVE"
);
},
{
closed = 1;
nodes = (
"1923 -219 LINE",
"1954 500 OFFCURVE",
"1997 800 OFFCURVE",
"2093 1065 CURVE",
"2014 1053 OFFCURVE",
"1944 1045 OFFCURVE",
"1868 1045 CURVE SMOOTH",
"1789 1046 OFFCURVE",
"1722 1053 OFFCURVE",
"1653 1065 CURVE",
"1738 837 OFFCURVE",
"1773 673 OFFCURVE",
"1805 421 CURVE SMOOTH",
"1821 294 OFFCURVE",
"1843 81 OFFCURVE",
"1870 -219 CURVE"
);
},
{
closed = 1;
nodes = (
"1485 1237 OFFCURVE",
"1736 1294 OFFCURVE",
"2060 1341 CURVE",
"2060 1389 LINE",
"1677 1421 OFFCURVE",
"1427 1480 OFFCURVE",
"1272 1561 CURVE",
"1285 1478 OFFCURVE",
"1291 1403 OFFCURVE",
"1291 1331 CURVE SMOOTH",
"1291 1258 OFFCURVE",
"1287 1189 OFFCURVE",
"1280 1118 CURVE"
);
}
);
width = 2429;
}
);
note = g6;
},
{
glyphname = g7;
lastChange = "2016-11-10 14:18:36 +0000";
layers = (
{
layerId = "0DE403EA-09CA-4A47-A866-F104DE4946EE";
paths = (
{
closed = 1;
nodes = (
"608 -229 LINE",
"633 664 OFFCURVE",
"673 1130 OFFCURVE",
"778 1507 CURVE",
"698 1490 OFFCURVE",
"626 1480 OFFCURVE",
"551 1480 CURVE SMOOTH",
"474 1481 OFFCURVE",
"405 1490 OFFCURVE",
"336 1507 CURVE",
"383 1336 OFFCURVE",
"418 1179 OFFCURVE",
"441 1036 CURVE SMOOTH",
"486 751 OFFCURVE",
"519 319 OFFCURVE",
"555 -229 CURVE"
);
},
{
closed = 1;
nodes = (
"1031 127 OFFCURVE",
"1296 195 OFFCURVE",
"1665 250 CURVE",
"1665 299 LINE",
"1246 330 OFFCURVE",
"984 394 OFFCURVE",
"848 469 CURVE",
"863 386 OFFCURVE",
"868 310 OFFCURVE",
"868 238 CURVE SMOOTH",
"868 166 OFFCURVE",
"863 96 OFFCURVE",
"856 27 CURVE"
);
},
{
closed = 1;
nodes = (
"1024 908 OFFCURVE",
"1287 977 OFFCURVE",
"1655 1030 CURVE",
"1655 1077 LINE",
"1235 1110 OFFCURVE",
"970 1176 OFFCURVE",
"838 1249 CURVE",
"851 1166 OFFCURVE",
"856 1090 OFFCURVE",
"856 1018 CURVE SMOOTH",
"856 945 OFFCURVE",
"851 875 OFFCURVE",
"844 807 CURVE"
);
}
);
width = 1970;
}
);
note = g7;
},
{
glyphname = g8;
lastChange = "2016-11-10 14:18:36 +0000";
layers = (
{
layerId = "0DE403EA-09CA-4A47-A866-F104DE4946EE";
paths = (
{
closed = 1;
nodes = (
"1200 -215 LINE",
"940 164 OFFCURVE",
"768 429 OFFCURVE",
"668 600 CURVE",
"773 791 LINE SMOOTH",
"894 1016 OFFCURVE",
"1030 1278 OFFCURVE",
"1155 1530 CURVE",
"1116 1550 LINE",
"792 1139 OFFCURVE",
"466 779 OFFCURVE",
"250 575 CURVE",
"562 324 OFFCURVE",
"852 62 OFFCURVE",
"1165 -246 CURVE"
);
},
{
closed = 1;
nodes = (
"1499 -229 LINE",
"1507 56 OFFCURVE",
"1517 303 OFFCURVE",
"1530 510 CURVE SMOOTH",
"1554 925 OFFCURVE",
"1588 1206 OFFCURVE",
"1669 1505 CURVE",
"1592 1490 OFFCURVE",
"1516 1483 OFFCURVE",
"1443 1483 CURVE SMOOTH",
"1369 1483 OFFCURVE",
"1297 1490 OFFCURVE",
"1227 1505 CURVE",
"1295 1260 OFFCURVE",
"1327 1098 OFFCURVE",
"1366 772 CURVE SMOOTH",
"1385 609 OFFCURVE",
"1412 275 OFFCURVE",
"1446 -229 CURVE"
);
}
);
width = 2005;
}
);
note = g8;
},
{
glyphname = g9;
lastChange = "2016-11-10 14:18:36 +0000";
layers = (
{
layerId = "0DE403EA-09CA-4A47-A866-F104DE4946EE";
paths = (
{
closed = 1;
nodes = (
"1128 -215 LINE",
"891 166 OFFCURVE",
"733 428 OFFCURVE",
"645 600 CURVE",
"740 791 LINE SMOOTH",
"847 1008 OFFCURVE",
"966 1267 OFFCURVE",
"1083 1530 CURVE",
"1042 1550 LINE",
"767 1165 OFFCURVE",
"458 790 OFFCURVE",
"250 575 CURVE",
"619 244 OFFCURVE",
"850 6 OFFCURVE",
"1085 -246 CURVE"
);
},
{
closed = 1;
nodes = (
"1434 -229 LINE",
"1455 538 OFFCURVE",
"1489 1082 OFFCURVE",
"1604 1505 CURVE",
"1527 1490 OFFCURVE",
"1451 1483 OFFCURVE",
"1377 1483 CURVE SMOOTH",
"1304 1483 OFFCURVE",
"1232 1490 OFFCURVE",
"1163 1505 CURVE",
"1259 1160 OFFCURVE",
"1290 899 OFFCURVE",
"1319 579 CURVE SMOOTH",
"1334 419 OFFCURVE",
"1354 150 OFFCURVE",
"1380 -229 CURVE"
);
},
{
closed = 1;
nodes = (
"1954 -229 LINE",
"1979 668 OFFCURVE",
"2020 1136 OFFCURVE",
"2124 1505 CURVE",
"2047 1490 OFFCURVE",
"1972 1483 OFFCURVE",
"1898 1483 CURVE SMOOTH",
"1825 1483 OFFCURVE",
"1752 1490 OFFCURVE",
"1681 1505 CURVE",
"1752 1249 OFFCURVE",
"1785 1087 OFFCURVE",
"1823 755 CURVE SMOOTH",
"1842 589 OFFCURVE",
"1868 261 OFFCURVE",
"1901 -229 CURVE"
);
},
{
closed = 1;
nodes = (
"2296 525 OFFCURVE",
"2521 593 OFFCURVE",
"2826 645 CURVE",
"2826 694 LINE",
"2513 723 OFFCURVE",
"2265 783 OFFCURVE",
"2136 864 CURVE",
"2149 781 OFFCURVE",
"2156 705 OFFCURVE",
"2156 633 CURVE SMOOTH",
"2156 618 LINE SMOOTH",
"2156 551 OFFCURVE",
"2152 486 OFFCURVE",
"2144 422 CURVE"
);
}
);
width = 3090;
}
);
note = g9;
},
{
glyphname = g10;
lastChange = "2016-11-10 14:18:36 +0000";
layers = (
{
layerId = "0DE403EA-09CA-4A47-A866-F104DE4946EE";
paths = (
{
closed = 1;
nodes = (
"1128 -215 LINE",
"893 165 OFFCURVE",
"735 429 OFFCURVE",
"647 600 CURVE",
"741 791 LINE SMOOTH",
"841 996 OFFCURVE",
"972 1279 OFFCURVE",
"1083 1530 CURVE",
"1044 1550 LINE",
"768 1163 OFFCURVE",
"458 786 OFFCURVE",
"250 575 CURVE",
"563 298 OFFCURVE",
"812 50 OFFCURVE",
"1087 -246 CURVE"
);
},
{
closed = 1;
nodes = (
"1352 9 OFFCURVE",
"1718 83 OFFCURVE",
"2214 139 CURVE",
"2214 188 LINE",
"1733 217 OFFCURVE",
"1334 282 OFFCURVE",
"1135 358 CURVE",
"1152 275 OFFCURVE",
"1160 202 OFFCURVE",
"1160 121 CURVE SMOOTH",
"1160 45 OFFCURVE",
"1153 -20 OFFCURVE",
"1145 -84 CURVE"
);
},
{
closed = 1;
nodes = (
"1347 531 OFFCURVE",
"1660 598 OFFCURVE",
"2193 662 CURVE",
"2193 709 LINE",
"1717 741 OFFCURVE",
"1305 808 OFFCURVE",
"1118 881 CURVE",
"1138 798 OFFCURVE",
"1147 723 OFFCURVE",
"1147 651 CURVE SMOOTH",
"1147 578 OFFCURVE",
"1140 509 OFFCURVE",
"1128 438 CURVE"
);
},
{
closed = 1;
nodes = (
"1259 1065 OFFCURVE",
"1409 1127 OFFCURVE",
"1657 1186 CURVE",
"1657 1110 OFFCURVE",
"1649 1037 OFFCURVE",
"1640 965 CURVE",
"1776 1069 OFFCURVE",
"1958 1139 OFFCURVE",
"2193 1192 CURVE",
"2193 1231 LINE",
"1909 1272 OFFCURVE",
"1727 1340 OFFCURVE",
"1632 1407 CURVE",
"1645 1346 OFFCURVE",
"1651 1291 OFFCURVE",
"1655 1235 CURVE",
"1383 1276 OFFCURVE",
"1210 1343 OFFCURVE",
"1118 1407 CURVE",
"1134 1330 OFFCURVE",
"1142 1259 OFFCURVE",
"1142 1182 CURVE SMOOTH",
"1141 1103 OFFCURVE",
"1134 1034 OFFCURVE",
"1126 965 CURVE"
);
}
);
width = 2519;
}
);
note = g10;
},
{
glyphname = g11;
lastChange = "2016-11-10 14:18:36 +0000";
layers = (
{
layerId = "0DE403EA-09CA-4A47-A866-F104DE4946EE";
paths = (
{
closed = 1;
nodes = (
"1667 -215 LINE",
"1430 165 OFFCURVE",
"1273 428 OFFCURVE",
"1182 600 CURVE",
"1277 791 LINE SMOOTH",
"1377 995 OFFCURVE",
"1503 1267 OFFCURVE",
"1622 1530 CURVE",
"1579 1550 LINE",
"1335 1205 OFFCURVE",
"1007 800 OFFCURVE",
"788 575 CURVE",
"1163 239 OFFCURVE",
"1383 14 OFFCURVE",
"1624 -246 CURVE"
);
},
{
closed = 1;
nodes = (
"1126 -215 LINE",
"890 165 OFFCURVE",
"735 429 OFFCURVE",
"647 600 CURVE",
"819 947 OFFCURVE",
"947 1225 OFFCURVE",
"1083 1530 CURVE",
"1040 1550 LINE",
"785 1187 OFFCURVE",
"466 794 OFFCURVE",
"250 575 CURVE",
"567 295 OFFCURVE",
"813 47 OFFCURVE",
"1085 -246 CURVE"
);
},
{
closed = 1;
nodes = (
"1970 -229 LINE",
"2001 751 OFFCURVE",
"2045 1156 OFFCURVE",
"2140 1505 CURVE",
"2064 1490 OFFCURVE",
"1989 1483 OFFCURVE",
"1915 1483 CURVE SMOOTH",
"1842 1483 OFFCURVE",
"1769 1490 OFFCURVE",
"1698 1505 CURVE",
"1798 1146 OFFCURVE",
"1827 905 OFFCURVE",
"1856 587 CURVE SMOOTH",
"1871 428 OFFCURVE",
"1891 156 OFFCURVE",
"1917 -229 CURVE"
);
},
{
closed = 1;
nodes = (
"2492 -229 LINE",
"2517 668 OFFCURVE",
"2558 1136 OFFCURVE",
"2662 1505 CURVE",
"2585 1490 OFFCURVE",
"2509 1483 OFFCURVE",
"2435 1483 CURVE SMOOTH",
"2362 1483 OFFCURVE",
"2290 1490 OFFCURVE",
"2220 1505 CURVE",
"2309 1182 OFFCURVE",
"2337 989 OFFCURVE",
"2372 635 CURVE SMOOTH",
"2389 458 OFFCURVE",
"2412 170 OFFCURVE",
"2439 -229 CURVE"
);
}
);
width = 2998;
}
);
note = g11;
},
{
glyphname = g12;
lastChange = "2016-11-10 14:18:36 +0000";
layers = (
{
layerId = "0DE403EA-09CA-4A47-A866-F104DE4946EE";
paths = (
{
closed = 1;
nodes = (
"1116 -219 LINE",
"1141 452 OFFCURVE",
"1183 798 OFFCURVE",
"1286 1063 CURVE",
"1207 1051 OFFCURVE",
"1138 1044 OFFCURVE",
"1061 1044 CURVE SMOOTH",
"982 1045 OFFCURVE",
"915 1051 OFFCURVE",
"844 1063 CURVE",
"912 882 OFFCURVE",
"944 763 OFFCURVE",
"983 521 CURVE SMOOTH",
"1002 400 OFFCURVE",
"1029 153 OFFCURVE",
"1063 -219 CURVE"
);
},
{
closed = 1;
nodes = (
"610 -219 LINE",
"635 452 OFFCURVE",
"677 798 OFFCURVE",
"780 1063 CURVE",
"701 1051 OFFCURVE",
"632 1044 OFFCURVE",
"555 1044 CURVE SMOOTH",
"476 1045 OFFCURVE",
"409 1051 OFFCURVE",
"338 1063 CURVE",
"437 804 OFFCURVE",
"465 631 OFFCURVE",
"495 395 CURVE SMOOTH",
"510 277 OFFCURVE",
"530 72 OFFCURVE",
"557 -219 CURVE"
);
},
{
closed = 1;
nodes = (
"575 1231 OFFCURVE",
"862 1290 OFFCURVE",
"1257 1341 CURVE",
"1257 1389 LINE",
"821 1420 OFFCURVE",
"517 1478 OFFCURVE",
"336 1559 CURVE",
"353 1476 OFFCURVE",
"360 1401 OFFCURVE",
"360 1329 CURVE SMOOTH",
"360 1256 OFFCURVE",
"353 1187 OFFCURVE",
"344 1116 CURVE"
);
},
{
closed = 1;
nodes = (
"1510 744 OFFCURVE",
"1696 813 OFFCURVE",
"1919 862 CURVE",
"1919 903 LINE",
"1635 942 OFFCURVE",
"1454 1010 OFFCURVE",
"1358 1077 CURVE",
"1374 1002 OFFCURVE",
"1382 930 OFFCURVE",
"1382 863 CURVE SMOOTH",
"1382 848 LINE SMOOTH",
"1381 776 OFFCURVE",
"1375 705 OFFCURVE",
"1366 635 CURVE"
);
}
);
width = 2185;
}
);
note = g12;
},
{
glyphname = g13;
lastChange = "2016-11-10 14:18:36 +0000";
layers = (
{
layerId = "0DE403EA-09CA-4A47-A866-F104DE4946EE";
paths = (
{
closed = 1;
nodes = (
"2165 -215 LINE",
"1926 162 OFFCURVE",
"1772 428 OFFCURVE",
"1679 600 CURVE",
"1774 791 LINE SMOOTH",
"1909 1064 OFFCURVE",
"2007 1274 OFFCURVE",
"2120 1530 CURVE",
"2077 1550 LINE",
"1833 1205 OFFCURVE",
"1505 800 OFFCURVE",
"1286 575 CURVE",
"1435 440 LINE SMOOTH",
"1619 273 OFFCURVE",
"1865 31 OFFCURVE",
"2122 -246 CURVE"
);
},
{
closed = 1;
nodes = (
"423 525 OFFCURVE",
"644 592 OFFCURVE",
"952 645 CURVE",
"952 694 LINE",
"603 725 OFFCURVE",
"379 795 OFFCURVE",
"266 864 CURVE",
"278 781 OFFCURVE",
"284 705 OFFCURVE",
"284 633 CURVE SMOOTH",
"284 618 LINE SMOOTH",
"284 553 OFFCURVE",
"279 483 OFFCURVE",
"274 422 CURVE"
);
},
{
closed = 1;
nodes = (
"1169 -229 LINE",
"1194 668 OFFCURVE",
"1235 1136 OFFCURVE",
"1339 1505 CURVE",
"1262 1490 OFFCURVE",
"1187 1483 OFFCURVE",
"1114 1483 CURVE SMOOTH",
"1040 1483 OFFCURVE",
"968 1490 OFFCURVE",
"897 1505 CURVE",
"988 1177 OFFCURVE",
"1021 961 OFFCURVE",
"1055 598 CURVE SMOOTH",
"1072 417 OFFCURVE",
"1092 141 OFFCURVE",
"1116 -229 CURVE"
);
}
);
width = 2388;
}
);
note = g13;
},
{
glyphname = g14;
lastChange = "2016-11-10 14:18:36 +0000";
layers = (
{
layerId = "0DE403EA-09CA-4A47-A866-F104DE4946EE";
paths = (
{
closed = 1;
nodes = (
"1653 -215 LINE",
"1413 164 OFFCURVE",
"1255 429 OFFCURVE",
"1167 600 CURVE",
"1262 791 LINE SMOOTH",
"1397 1064 OFFCURVE",
"1495 1274 OFFCURVE",
"1608 1530 CURVE",
"1565 1550 LINE",
"1300 1177 OFFCURVE",
"1000 809 OFFCURVE",
"799 602 CURVE",
"560 638 OFFCURVE",
"367 699 OFFCURVE",
"266 770 CURVE",
"280 695 OFFCURVE",
"287 625 OFFCURVE",
"287 558 CURVE SMOOTH",
"287 541 LINE SMOOTH",
"286 470 OFFCURVE",
"281 399 OFFCURVE",
"274 330 CURVE",
"430 446 OFFCURVE",
"599 505 OFFCURVE",
"803 549 CURVE",
"949 416 LINE SMOOTH",
"1121 257 OFFCURVE",
"1357 25 OFFCURVE",
"1610 -246 CURVE"
);
},
{
closed = 1;
nodes = (
"1822 16 OFFCURVE",
"2005 80 OFFCURVE",
"2222 129 CURVE",
"2222 170 LINE",
"1957 207 OFFCURVE",
"1766 269 OFFCURVE",
"1661 344 CURVE",
"1677 263 OFFCURVE",
"1684 187 OFFCURVE",
"1684 115 CURVE SMOOTH",
"1684 42 OFFCURVE",
"1677 -28 OFFCURVE",
"1669 -96 CURVE"
);
},
{
closed = 1;
nodes = (
"1824 549 OFFCURVE",
"1999 611 OFFCURVE",
"2222 659 CURVE",
"2222 702 LINE",
"1938 741 OFFCURVE",
"1753 811 OFFCURVE",
"1661 874 CURVE",
"1677 794 OFFCURVE",
"1684 718 OFFCURVE",
"1684 646 CURVE SMOOTH",
"1684 573 OFFCURVE",
"1677 503 OFFCURVE",
"1669 432 CURVE"
);
},
{
closed = 1;
nodes = (
"1809 1070 OFFCURVE",
"1989 1140 OFFCURVE",
"2222 1192 CURVE",
"2222 1231 LINE",
"1937 1272 OFFCURVE",
"1753 1340 OFFCURVE",
"1661 1407 CURVE",
"1677 1326 OFFCURVE",
"1684 1250 OFFCURVE",
"1684 1178 CURVE SMOOTH",
"1684 1105 OFFCURVE",
"1677 1034 OFFCURVE",
"1669 965 CURVE"
);
}
);
width = 2529;
}
);
note = g14;
},
{
glyphname = g15;
lastChange = "2016-11-10 14:18:36 +0000";
layers = (
{
layerId = "0DE403EA-09CA-4A47-A866-F104DE4946EE";
paths = (
{
closed = 1;
nodes = (
"1927 -229 LINE",
"1958 718 OFFCURVE",
"2001 1148 OFFCURVE",
"2101 1507 CURVE",
"2023 1491 OFFCURVE",
"1947 1483 OFFCURVE",
"1873 1483 CURVE SMOOTH",
"1800 1483 OFFCURVE",
"1728 1491 OFFCURVE",
"1659 1507 CURVE",
"1764 1126 OFFCURVE",
"1804 797 OFFCURVE",
"1851 134 CURVE SMOOTH",
"1876 -229 LINE"
);
},
{
closed = 1;
nodes = (
"483 336 OFFCURVE",
"653 397 OFFCURVE",
"881 444 CURVE",
"881 487 LINE",
"597 526 OFFCURVE",
"412 596 OFFCURVE",
"319 659 CURVE",
"335 579 OFFCURVE",
"342 503 OFFCURVE",
"342 431 CURVE SMOOTH",
"342 358 OFFCURVE",
"336 288 OFFCURVE",
"328 219 CURVE"
);
},
{
closed = 1;
nodes = (
"457 847 OFFCURVE",
"645 917 OFFCURVE",
"877 969 CURVE",
"877 1010 LINE",
"593 1049 OFFCURVE",
"406 1117 OFFCURVE",
"313 1184 CURVE",
"329 1103 OFFCURVE",
"336 1027 OFFCURVE",
"336 955 CURVE SMOOTH",
"336 882 OFFCURVE",
"330 812 OFFCURVE",
"322 743 CURVE"
);
},
{
closed = 1;
nodes = (
"1085 -229 LINE",
"1112 619 OFFCURVE",
"1148 1096 OFFCURVE",
"1257 1507 CURVE",
"1180 1491 OFFCURVE",
"1105 1483 OFFCURVE",
"1032 1483 CURVE SMOOTH",
"959 1483 OFFCURVE",
"887 1491 OFFCURVE",
"817 1507 CURVE",
"906 1184 OFFCURVE",
"936 978 OFFCURVE",
"968 647 CURVE SMOOTH",
"984 481 OFFCURVE",
"1005 189 OFFCURVE",
"1032 -229 CURVE"
);
},
{
closed = 1;
nodes = (
"1516 -219 LINE",
"1541 441 OFFCURVE",
"1581 788 OFFCURVE",
"1686 1065 CURVE",
"1523 1038 OFFCURVE",
"1384 1040 OFFCURVE",
"1243 1065 CURVE",
"1335 820 OFFCURVE",
"1367 661 OFFCURVE",
"1401 394 CURVE SMOOTH",
"1418 260 OFFCURVE",
"1438 56 OFFCURVE",
"1462 -219 CURVE"
);
}
);
width = 2435;
}
);
note = g15;
},
{
glyphname = g16;
lastChange = "2016-11-10 14:18:36 +0000";
layers = (
{
layerId = "0DE403EA-09CA-4A47-A866-F104DE4946EE";
paths = (
{
closed = 1;
nodes = (
"1614 -229 LINE",
"1638 644 OFFCURVE",
"1676 1102 OFFCURVE",
"1784 1507 CURVE",
"1707 1491 OFFCURVE",
"1631 1483 OFFCURVE",
"1557 1483 CURVE SMOOTH",
"1484 1483 OFFCURVE",
"1412 1491 OFFCURVE",
"1341 1507 CURVE",
"1388 1337 OFFCURVE",
"1423 1182 OFFCURVE",
"1445 1041 CURVE SMOOTH",
"1489 760 OFFCURVE",
"1522 378 OFFCURVE",
"1561 -229 CURVE"
);
},
{
closed = 1;
nodes = (
"608 -229 LINE",
"633 664 OFFCURVE",
"673 1130 OFFCURVE",
"778 1507 CURVE",
"701 1491 OFFCURVE",
"625 1483 OFFCURVE",
"551 1483 CURVE SMOOTH",
"478 1483 OFFCURVE",
"406 1491 OFFCURVE",
"336 1507 CURVE",
"383 1336 OFFCURVE",
"418 1179 OFFCURVE",
"441 1036 CURVE SMOOTH",
"486 751 OFFCURVE",
"519 319 OFFCURVE",
"555 -229 CURVE"
);
},
{
closed = 1;
nodes = (
"1108 -229 LINE",
"1131 603 OFFCURVE",
"1167 1094 OFFCURVE",
"1278 1507 CURVE",
"1201 1491 OFFCURVE",
"1125 1483 OFFCURVE",
"1052 1483 CURVE SMOOTH",
"978 1483 OFFCURVE",
"906 1491 OFFCURVE",
"836 1507 CURVE",
"904 1263 OFFCURVE",
"939 1096 OFFCURVE",
"977 757 CURVE SMOOTH",
"996 588 OFFCURVE",
"1022 259 OFFCURVE",
"1055 -229 CURVE"
);
},
{
closed = 1;
nodes = (
"1936 581 OFFCURVE",
"2117 647 OFFCURVE",
"2341 694 CURVE",
"2341 737 LINE",
"2057 774 OFFCURVE",
"1872 844 OFFCURVE",
"1780 911 CURVE",
"1795 830 OFFCURVE",
"1800 753 OFFCURVE",
"1800 680 CURVE SMOOTH",
"1800 607 OFFCURVE",
"1795 537 OFFCURVE",
"1788 469 CURVE"
);
}
);
width = 2607;
}
);
note = g16;
},
{
glyphname = g17;
lastChange = "2016-11-10 14:18:36 +0000";
layers = (
{
layerId = "0DE403EA-09CA-4A47-A866-F104DE4946EE";
paths = (
{
closed = 1;
nodes = (
"1116 -219 LINE",
"1140 421 OFFCURVE",
"1179 776 OFFCURVE",
"1286 1063 CURVE",
"1207 1051 OFFCURVE",
"1138 1044 OFFCURVE",
"1061 1044 CURVE SMOOTH",
"982 1045 OFFCURVE",
"915 1051 OFFCURVE",
"844 1063 CURVE",
"912 882 OFFCURVE",
"944 763 OFFCURVE",
"983 521 CURVE SMOOTH",
"1002 400 OFFCURVE",
"1029 153 OFFCURVE",
"1063 -219 CURVE"
);
},
{
closed = 1;
nodes = (
"610 -219 LINE",
"634 421 OFFCURVE",
"673 776 OFFCURVE",
"780 1063 CURVE",
"701 1051 OFFCURVE",
"632 1044 OFFCURVE",
"555 1044 CURVE SMOOTH",
"476 1045 OFFCURVE",
"409 1051 OFFCURVE",
"338 1063 CURVE",
"437 804 OFFCURVE",
"465 631 OFFCURVE",
"495 395 CURVE SMOOTH",
"510 277 OFFCURVE",
"530 72 OFFCURVE",
"557 -219 CURVE"
);
},
{
closed = 1;
nodes = (
"441 1197 OFFCURVE",
"808 1270 OFFCURVE",
"1360 1341 CURVE",
"1360 1389 LINE",
"831 1428 OFFCURVE",
"415 1494 OFFCURVE",
"268 1559 CURVE",
"284 1476 OFFCURVE",
"292 1403 OFFCURVE",
"292 1323 CURVE SMOOTH",
"292 1247 OFFCURVE",
"284 1181 OFFCURVE",
"276 1116 CURVE"
);
}
);
width = 1622;
}
);
note = g17;
},
{
glyphname = g18;
lastChange = "2016-11-10 14:18:36 +0000";
layers = (
{
layerId = "0DE403EA-09CA-4A47-A866-F104DE4946EE";
paths = (
{
closed = 1;
nodes = (
"1759 -229 LINE",
"1790 718 OFFCURVE",
"1833 1148 OFFCURVE",
"1933 1507 CURVE",
"1856 1491 OFFCURVE",
"1780 1483 OFFCURVE",
"1707 1483 CURVE SMOOTH",
"1633 1483 OFFCURVE",
"1561 1491 OFFCURVE",
"1491 1507 CURVE",
"1533 1355 OFFCURVE",
"1564 1221 OFFCURVE",
"1584 1104 CURVE SMOOTH",
"1624 870 OFFCURVE",
"1656 550 OFFCURVE",
"1685 134 CURVE SMOOTH",
"1710 -229 LINE"
);
},
{
closed = 1;
nodes = (
"497 12 OFFCURVE",
"682 76 OFFCURVE",
"946 131 CURVE",
"946 170 LINE",
"635 211 OFFCURVE",
"440 279 OFFCURVE",
"336 346 CURVE",
"353 269 OFFCURVE",
"361 198 OFFCURVE",
"361 121 CURVE SMOOTH",
"360 42 OFFCURVE",
"353 -27 OFFCURVE",
"344 -96 CURVE"
);
},
{
closed = 1;
nodes = (
"500 543 OFFCURVE",
"695 611 OFFCURVE",
"946 659 CURVE",
"946 702 LINE",
"635 743 OFFCURVE",
"440 810 OFFCURVE",
"336 877 CURVE",
"353 798 OFFCURVE",
"361 728 OFFCURVE",
"361 651 CURVE SMOOTH",
"360 572 OFFCURVE",
"353 505 OFFCURVE",
"344 434 CURVE"
);
},
{
closed = 1;
nodes = (
"501 1074 OFFCURVE",
"685 1137 OFFCURVE",
"946 1192 CURVE",
"946 1233 LINE",
"635 1272 OFFCURVE",
"440 1341 OFFCURVE",
"336 1409 CURVE",
"353 1330 OFFCURVE",
"361 1260 OFFCURVE",
"361 1183 CURVE SMOOTH",
"360 1103 OFFCURVE",
"353 1035 OFFCURVE",
"344 967 CURVE"
);
},
{
closed = 1;
nodes = (
"1241 -229 LINE",
"1269 643 OFFCURVE",
"1308 1122 OFFCURVE",
"1411 1507 CURVE",
"1334 1491 OFFCURVE",
"1259 1483 OFFCURVE",
"1185 1483 CURVE SMOOTH",
"1112 1483 OFFCURVE",
"1040 1491 OFFCURVE",
"969 1507 CURVE",
"1016 1336 OFFCURVE",
"1051 1180 OFFCURVE",
"1073 1039 CURVE SMOOTH",
"1116 756 OFFCURVE",
"1148 391 OFFCURVE",
"1188 -229 CURVE"
);
}
);
width = 2269;
}
);
note = g18;
},
{
glyphname = g19;
lastChange = "2016-11-10 14:18:36 +0000";
layers = (
{
layerId = "0DE403EA-09CA-4A47-A866-F104DE4946EE";
paths = (
{
closed = 1;
nodes = (
"1128 -215 LINE",
"893 165 OFFCURVE",
"735 429 OFFCURVE",
"647 600 CURVE",
"819 947 OFFCURVE",
"947 1225 OFFCURVE",
"1083 1530 CURVE",
"1044 1550 LINE",
"768 1163 OFFCURVE",
"458 786 OFFCURVE",
"250 575 CURVE",
"565 296 OFFCURVE",
"809 54 OFFCURVE",
"1085 -246 CURVE"
);
},
{
closed = 1;
nodes = (
"1283 28 OFFCURVE",
"1536 95 OFFCURVE",
"1964 156 CURVE",
"1964 203 LINE",
"1525 238 OFFCURVE",
"1240 308 OFFCURVE",
"1100 375 CURVE",
"1113 292 OFFCURVE",
"1118 217 OFFCURVE",
"1118 145 CURVE SMOOTH",
"1118 72 OFFCURVE",
"1113 3 OFFCURVE",
"1108 -68 CURVE"
);
},
{
closed = 1;
nodes = (
"1437 504 OFFCURVE",
"1624 573 OFFCURVE",
"1892 629 CURVE",
"1892 670 LINE",
"1616 706 OFFCURVE",
"1404 766 OFFCURVE",
"1284 842 CURVE",
"1303 762 OFFCURVE",
"1309 687 OFFCURVE",
"1309 615 CURVE SMOOTH",
"1309 543 OFFCURVE",
"1301 472 OFFCURVE",
"1292 403 CURVE"
);
},
{
closed = 1;
nodes = (
"1283 969 OFFCURVE",
"1537 1033 OFFCURVE",
"1950 1094 CURVE",
"1950 1141 LINE",
"1515 1174 OFFCURVE",
"1228 1246 OFFCURVE",
"1083 1311 CURVE",
"1100 1234 OFFCURVE",
"1108 1161 OFFCURVE",
"1108 1092 CURVE SMOOTH",
"1108 1081 LINE SMOOTH",
"1107 1009 OFFCURVE",
"1102 938 OFFCURVE",
"1094 868 CURVE"
);
},
{
closed = 1;
nodes = (
"2257 -229 LINE",
"2285 654 OFFCURVE",
"2322 1113 OFFCURVE",
"2429 1505 CURVE",
"2352 1490 OFFCURVE",
"2277 1483 OFFCURVE",
"2204 1483 CURVE SMOOTH",
"2131 1483 OFFCURVE",
"2059 1490 OFFCURVE",
"1989 1505 CURVE",
"2029 1361 OFFCURVE",
"2060 1227 OFFCURVE",
"2082 1102 CURVE SMOOTH",
"2125 853 OFFCURVE",
"2159 486 OFFCURVE",
"2204 -229 CURVE"
);
}
);
width = 2763;
}
);
note = g19;
},
{
glyphname = g20;
lastChange = "2016-11-10 14:18:36 +0000";
layers = (
{
layerId = "0DE403EA-09CA-4A47-A866-F104DE4946EE";
paths = (
{
closed = 1;
nodes = (
"1597 -215 LINE",
"1358 165 OFFCURVE",
"1200 429 OFFCURVE",
"1112 600 CURVE",
"1207 791 LINE SMOOTH",
"1327 1034 OFFCURVE",
"1444 1286 OFFCURVE",
"1552 1530 CURVE",
"1509 1550 LINE",
"1257 1191 OFFCURVE",
"932 795 OFFCURVE",
"719 575 CURVE",
"868 440 LINE SMOOTH",
"1055 268 OFFCURVE",
"1295 33 OFFCURVE",
"1554 -246 CURVE"
);
},
{
closed = 1;
nodes = (
"606 -229 LINE",
"617 124 OFFCURVE",
"630 397 OFFCURVE",
"644 590 CURVE SMOOTH",
"671 976 OFFCURVE",
"702 1225 OFFCURVE",
"778 1505 CURVE",
"700 1490 OFFCURVE",
"624 1483 OFFCURVE",
"550 1483 CURVE SMOOTH",
"477 1483 OFFCURVE",
"405 1490 OFFCURVE",
"336 1505 CURVE",
"415 1210 OFFCURVE",
"435 1099 OFFCURVE",
"476 752 CURVE SMOOTH",
"497 578 OFFCURVE",
"522 251 OFFCURVE",
"553 -229 CURVE"
);
},
{
closed = 1;
nodes = (
"1853 -229 LINE",
"1884 751 OFFCURVE",
"1928 1156 OFFCURVE",
"2023 1505 CURVE",
"1946 1490 OFFCURVE",
"1871 1483 OFFCURVE",
"1798 1483 CURVE SMOOTH",
"1724 1483 OFFCURVE",
"1652 1490 OFFCURVE",
"1581 1505 CURVE",
"1672 1177 OFFCURVE",
"1705 961 OFFCURVE",
"1739 598 CURVE SMOOTH",
"1756 417 OFFCURVE",
"1776 141 OFFCURVE",
"1800 -229 CURVE"
);
}
);
width = 2359;
}
);
note = g20;
},
{
glyphname = g21;
lastChange = "2016-11-10 14:18:36 +0000";
layers = (
{
layerId = "0DE403EA-09CA-4A47-A866-F104DE4946EE";
paths = (
{
closed = 1;
nodes = (
"663 370 OFFCURVE",
"852 398 OFFCURVE",
"1164 431 CURVE SMOOTH",
"1320 448 OFFCURVE",
"1604 469 OFFCURVE",
"2015 496 CURVE",
"2015 549 LINE",
"1718 558 OFFCURVE",
"1471 570 OFFCURVE",
"1276 583 CURVE SMOOTH",
"885 609 OFFCURVE",
"637 640 OFFCURVE",
"334 721 CURVE",
"351 644 OFFCURVE",
"360 569 OFFCURVE",
"360 495 CURVE SMOOTH",
"360 422 OFFCURVE",
"351 350 OFFCURVE",
"334 279 CURVE"
);
},
{
closed = 1;
nodes = (
"999 -238 LINE",
"1040 46 OFFCURVE",
"1110 227 OFFCURVE",
"1174 324 CURVE",
"1093 308 OFFCURVE",
"1017 301 OFFCURVE",
"945 301 CURVE SMOOTH",
"872 301 OFFCURVE",
"802 307 OFFCURVE",
"731 315 CURVE",
"843 167 OFFCURVE",
"910 -15 OFFCURVE",
"958 -238 CURVE"
);
},
{
closed = 1;
nodes = (
"1522 -233 LINE",
"1563 52 OFFCURVE",
"1629 237 OFFCURVE",
"1696 328 CURVE",
"1621 314 OFFCURVE",
"1550 307 OFFCURVE",
"1483 307 CURVE SMOOTH",
"1466 307 LINE SMOOTH",
"1395 308 OFFCURVE",
"1324 313 OFFCURVE",
"1253 322 CURVE",
"1369 171 OFFCURVE",
"1430 -5 OFFCURVE",
"1479 -233 CURVE"
);
},
{
closed = 1;
nodes = (
"987 786 OFFCURVE",
"1061 804 OFFCURVE",
"1206 832 CURVE SMOOTH",
"1351 860 OFFCURVE",
"1603 891 OFFCURVE",
"2003 926 CURVE",
"2003 979 LINE",
"1399 1002 OFFCURVE",
"1072 1034 OFFCURVE",
"776 1149 CURVE",
"788 1070 OFFCURVE",
"796 1000 OFFCURVE",
"796 924 CURVE SMOOTH",
"795 845 OFFCURVE",
"788 778 OFFCURVE",
"776 707 CURVE"
);
},
{
closed = 1;
nodes = (
"674 1215 OFFCURVE",
"875 1244 OFFCURVE",
"1222 1277 CURVE SMOOTH",
"1395 1294 OFFCURVE",
"1660 1314 OFFCURVE",
"2015 1337 CURVE",
"2015 1391 LINE",
"1194 1418 OFFCURVE",
"758 1448 OFFCURVE",
"334 1561 CURVE",
"352 1484 OFFCURVE",
"361 1409 OFFCURVE",
"361 1336 CURVE SMOOTH",
"361 1263 OFFCURVE",
"352 1191 OFFCURVE",
"334 1120 CURVE"
);
}
);
width = 2322;
}
);
note = g21;
},
{
glyphname = g22;
lastChange = "2016-11-10 14:18:36 +0000";
layers = (
{
layerId = "0DE403EA-09CA-4A47-A866-F104DE4946EE";
paths = (
{
closed = 1;
nodes = (
"1489 -229 LINE",
"1512 603 OFFCURVE",
"1548 1094 OFFCURVE",
"1659 1507 CURVE",
"1582 1491 OFFCURVE",
"1506 1483 OFFCURVE",
"1433 1483 CURVE SMOOTH",
"1359 1483 OFFCURVE",
"1287 1491 OFFCURVE",
"1217 1507 CURVE",
"1336 1079 OFFCURVE",
"1367 791 OFFCURVE",
"1436 -229 CURVE"
);
},
{
closed = 1;
nodes = (
"419 207 OFFCURVE",
"505 241 OFFCURVE",
"574 262 CURVE SMOOTH",
"713 302 OFFCURVE",
"873 338 OFFCURVE",
"1241 383 CURVE",
"1241 432 LINE",
"861 455 OFFCURVE",
"565 502 OFFCURVE",
"305 602 CURVE",
"321 519 OFFCURVE",
"330 446 OFFCURVE",
"330 365 CURVE SMOOTH",
"330 289 OFFCURVE",
"324 224 OFFCURVE",
"317 160 CURVE"
);
},
{
closed = 1;
nodes = (
"394 724 LINE SMOOTH",
"593 807 OFFCURVE",
"840 860 OFFCURVE",
"1225 907 CURVE",
"1225 952 LINE",
"829 979 OFFCURVE",
"550 1025 OFFCURVE",
"289 1124 CURVE",
"307 1048 OFFCURVE",
"316 976 OFFCURVE",
"316 909 CURVE SMOOTH",
"316 895 LINE SMOOTH",
"315 824 OFFCURVE",
"309 753 OFFCURVE",
"299 684 CURVE"
);
}
);
width = 1995;
}
);
note = g22;
},
{
glyphname = g23;
lastChange = "2016-11-10 14:18:36 +0000";
layers = (
{
layerId = "0DE403EA-09CA-4A47-A866-F104DE4946EE";
paths = (
{
closed = 1;
nodes = (
"1614 -215 LINE",
"1378 162 OFFCURVE",
"1223 429 OFFCURVE",
"1130 600 CURVE",
"1225 791 LINE SMOOTH",
"1360 1064 OFFCURVE",
"1458 1274 OFFCURVE",
"1571 1530 CURVE",
"1526 1550 LINE",
"1282 1202 OFFCURVE",
"956 800 OFFCURVE",
"737 575 CURVE",
"1076 271 OFFCURVE",
"1316 31 OFFCURVE",
"1573 -246 CURVE"
);
},
{
closed = 1;
nodes = (
"606 -229 LINE",
"617 120 OFFCURVE",
"630 390 OFFCURVE",
"643 581 CURVE SMOOTH",
"669 962 OFFCURVE",
"703 1233 OFFCURVE",
"776 1505 CURVE",
"699 1490 OFFCURVE",
"623 1482 OFFCURVE",
"550 1482 CURVE SMOOTH",
"477 1482 OFFCURVE",
"405 1490 OFFCURVE",
"336 1505 CURVE",
"382 1332 OFFCURVE",
"416 1180 OFFCURVE",
"437 1049 CURVE SMOOTH",
"479 785 OFFCURVE",
"513 399 OFFCURVE",
"553 -229 CURVE"
);
},
{
closed = 1;
nodes = (
"2150 -215 LINE",
"1915 165 OFFCURVE",
"1757 429 OFFCURVE",
"1669 600 CURVE",
"1829 924 OFFCURVE",
"1966 1215 OFFCURVE",
"2107 1530 CURVE",
"2066 1550 LINE",
"1799 1175 OFFCURVE",
"1475 780 OFFCURVE",
"1276 575 CURVE",
"1425 440 LINE SMOOTH",
"1612 268 OFFCURVE",
"1852 33 OFFCURVE",
"2111 -246 CURVE"
);
}
);
width = 2374;
}
);
note = g23;
},
{
glyphname = g24;
lastChange = "2016-11-10 14:18:36 +0000";
layers = (
{
layerId = "0DE403EA-09CA-4A47-A866-F104DE4946EE";
paths = (
{
closed = 1;
nodes = (
"1866 -215 LINE",
"1629 164 OFFCURVE",
"1474 429 OFFCURVE",
"1386 600 CURVE",
"1559 951 OFFCURVE",
"1689 1230 OFFCURVE",
"1825 1530 CURVE",
"1780 1550 LINE",
"1512 1169 OFFCURVE",
"1212 803 OFFCURVE",
"991 575 CURVE",
"1275 323 OFFCURVE",
"1544 57 OFFCURVE",
"1829 -246 CURVE"
);
},
{
closed = 1;
nodes = (
"574 2 OFFCURVE",
"865 60 OFFCURVE",
"1317 113 CURVE",
"1317 162 LINE",
"852 193 OFFCURVE",
"521 253 OFFCURVE",
"324 332 CURVE",
"340 249 OFFCURVE",
"347 174 OFFCURVE",
"347 102 CURVE SMOOTH",
"347 29 OFFCURVE",
"342 -40 OFFCURVE",
"334 -111 CURVE"
);
},
{
closed = 1;
nodes = (
"632 946 OFFCURVE",
"947 996 OFFCURVE",
"1298 1036 CURVE",
"1298 1085 LINE",
"878 1110 OFFCURVE",
"552 1163 OFFCURVE",
"305 1255 CURVE",
"325 1172 OFFCURVE",
"335 1099 OFFCURVE",
"335 1019 CURVE SMOOTH",
"335 943 OFFCURVE",
"327 877 OFFCURVE",
"319 813 CURVE"
);
}
);
width = 2089;
}
);
note = g24;
},
{
glyphname = g25;
lastChange = "2016-11-10 14:18:36 +0000";
layers = (
{
layerId = "0DE403EA-09CA-4A47-A866-F104DE4946EE";
paths = (
{
closed = 1;
nodes = (
"1667 -215 LINE",
"1432 164 OFFCURVE",
"1273 428 OFFCURVE",
"1184 600 CURVE",
"1278 791 LINE SMOOTH",
"1393 1024 OFFCURVE",
"1521 1302 OFFCURVE",
"1622 1530 CURVE",
"1579 1550 LINE",
"1335 1203 OFFCURVE",
"1001 795 OFFCURVE",
"788 575 CURVE",
"1103 296 OFFCURVE",
"1360 39 OFFCURVE",
"1624 -246 CURVE"
);
},
{
closed = 1;
nodes = (
"1126 -215 LINE",
"891 165 OFFCURVE",
"735 429 OFFCURVE",
"647 600 CURVE",
"741 791 LINE SMOOTH",
"841 996 OFFCURVE",
"972 1279 OFFCURVE",
"1083 1530 CURVE",
"1042 1550 LINE",
"787 1191 OFFCURVE",
"469 799 OFFCURVE",
"252 575 CURVE",
"621 244 OFFCURVE",
"852 6 OFFCURVE",
"1087 -246 CURVE"
);
},
{
closed = 1;
nodes = (
"1699 273 OFFCURVE",
"1921 337 OFFCURVE",
"2228 389 CURVE",
"2228 438 LINE",
"1879 473 OFFCURVE",
"1655 539 OFFCURVE",
"1542 608 CURVE",
"1554 525 OFFCURVE",
"1560 450 OFFCURVE",
"1560 378 CURVE SMOOTH",
"1560 363 LINE SMOOTH",
"1560 298 OFFCURVE",
"1555 229 OFFCURVE",
"1550 166 CURVE"
);
},
{
closed = 1;
nodes = (
"1706 809 OFFCURVE",
"1919 873 OFFCURVE",
"2228 928 CURVE",
"2228 975 LINE",
"1877 1008 OFFCURVE",
"1655 1076 OFFCURVE",
"1542 1147 CURVE",
"1554 1064 OFFCURVE",
"1560 988 OFFCURVE",
"1560 916 CURVE SMOOTH",
"1560 900 LINE SMOOTH",
"1560 835 OFFCURVE",
"1555 765 OFFCURVE",
"1550 705 CURVE"
);
}
);
width = 2521;
}
);
note = g25;
},
{
glyphname = g26;
lastChange = "2016-11-10 14:18:36 +0000";
layers = (
{
layerId = "0DE403EA-09CA-4A47-A866-F104DE4946EE";
paths = (
{
closed = 1;
nodes = (
"1960 -229 LINE",
"1991 734 OFFCURVE",
"2030 1147 OFFCURVE",
"2130 1507 CURVE",
"2053 1491 OFFCURVE",
"1978 1483 OFFCURVE",
"1904 1483 CURVE SMOOTH",
"1831 1483 OFFCURVE",
"1759 1491 OFFCURVE",
"1688 1507 CURVE",
"1756 1263 OFFCURVE",
"1791 1096 OFFCURVE",
"1829 757 CURVE SMOOTH",
"1848 588 OFFCURVE",
"1874 259 OFFCURVE",
"1907 -229 CURVE"
);
},
{
closed = 1;
nodes = (
"379 469 OFFCURVE",
"616 553 OFFCURVE",
"911 614 CURVE",
"911 657 LINE",
"615 698 OFFCURVE",
"354 770 OFFCURVE",
"266 831 CURVE",
"281 756 OFFCURVE",
"289 685 OFFCURVE",
"289 618 CURVE SMOOTH",
"289 602 LINE SMOOTH",
"288 531 OFFCURVE",
"283 460 OFFCURVE",
"274 389 CURVE"
);
},
{
closed = 1;
nodes = (
"1118 -229 LINE",
"1145 627 OFFCURVE",
"1181 1110 OFFCURVE",
"1288 1507 CURVE",
"1211 1491 OFFCURVE",
"1136 1483 OFFCURVE",
"1063 1483 CURVE SMOOTH",
"989 1483 OFFCURVE",
"917 1491 OFFCURVE",
"846 1507 CURVE",
"914 1263 OFFCURVE",
"949 1096 OFFCURVE",
"987 757 CURVE SMOOTH",
"1006 588 OFFCURVE",
"1032 259 OFFCURVE",
"1065 -229 CURVE"
);
},
{
closed = 1;
nodes = (
"1546 -219 LINE",
"1557 43 OFFCURVE",
"1570 243 OFFCURVE",
"1583 382 CURVE SMOOTH",
"1609 659 OFFCURVE",
"1640 857 OFFCURVE",
"1716 1065 CURVE",
"1555 1038 OFFCURVE",
"1413 1040 OFFCURVE",
"1276 1065 CURVE",
"1365 817 OFFCURVE",
"1392 677 OFFCURVE",
"1427 418 CURVE SMOOTH",
"1444 288 OFFCURVE",
"1466 76 OFFCURVE",
"1493 -219 CURVE"
);
}
);
width = 2466;
}
);
note = g26;
},
{
glyphname = g27;
lastChange = "2016-11-10 14:18:36 +0000";
layers = (
{
layerId = "0DE403EA-09CA-4A47-A866-F104DE4946EE";
paths = (
{
closed = 1;
nodes = (
"1604 -215 LINE",
"1364 164 OFFCURVE",
"1207 429 OFFCURVE",
"1118 600 CURVE",
"1213 791 LINE SMOOTH",
"1332 1032 OFFCURVE",
"1463 1313 OFFCURVE",
"1559 1530 CURVE",
"1516 1550 LINE",
"1272 1205 OFFCURVE",
"944 800 OFFCURVE",
"725 575 CURVE",
"874 440 LINE SMOOTH",
"1058 273 OFFCURVE",
"1304 31 OFFCURVE",
"1561 -246 CURVE"
);
},
{
closed = 1;
nodes = (
"608 -229 LINE",
"633 668 OFFCURVE",
"674 1136 OFFCURVE",
"778 1505 CURVE",
"701 1490 OFFCURVE",
"625 1483 OFFCURVE",
"551 1483 CURVE SMOOTH",
"478 1483 OFFCURVE",
"406 1490 OFFCURVE",
"336 1505 CURVE",
"436 1146 OFFCURVE",
"465 905 OFFCURVE",
"494 587 CURVE SMOOTH",
"509 428 OFFCURVE",
"529 156 OFFCURVE",
"555 -229 CURVE"
);
},
{
closed = 1;
nodes = (
"1571 267 OFFCURVE",
"1770 333 OFFCURVE",
"2109 393 CURVE",
"2109 440 LINE",
"1756 475 OFFCURVE",
"1532 541 OFFCURVE",
"1419 610 CURVE",
"1432 528 OFFCURVE",
"1439 452 OFFCURVE",
"1439 381 CURVE SMOOTH",
"1439 310 OFFCURVE",
"1436 239 OFFCURVE",
"1430 170 CURVE"
);
},
{
closed = 1;
nodes = (
"1567 754 OFFCURVE",
"1754 818 OFFCURVE",
"2109 883 CURVE",
"2109 930 LINE",
"1754 965 OFFCURVE",
"1532 1029 OFFCURVE",
"1419 1102 CURVE",
"1432 1019 OFFCURVE",
"1439 944 OFFCURVE",
"1439 872 CURVE SMOOTH",
"1439 844 LINE SMOOTH",
"1439 785 OFFCURVE",
"1434 716 OFFCURVE",
"1430 659 CURVE"
);
}
);
width = 2388;
}
);
note = g27;
},
{
glyphname = g28;
lastChange = "2016-11-10 14:18:36 +0000";
layers = (
{
layerId = "0DE403EA-09CA-4A47-A866-F104DE4946EE";
paths = (
{
closed = 1;
nodes = (
"1939 -215 LINE",
"1700 165 OFFCURVE",
"1543 429 OFFCURVE",
"1454 600 CURVE",
"1549 791 LINE SMOOTH",
"1669 1034 OFFCURVE",
"1786 1286 OFFCURVE",
"1894 1530 CURVE",
"1851 1550 LINE",
"1580 1170 OFFCURVE",
"1279 803 OFFCURVE",
"1090 606 CURVE",
"839 647 OFFCURVE",
"674 715 OFFCURVE",
"586 776 CURVE",
"602 695 OFFCURVE",
"610 622 OFFCURVE",
"610 541 CURVE SMOOTH",
"610 465 OFFCURVE",
"603 398 OFFCURVE",
"598 334 CURVE",
"714 435 OFFCURVE",
"878 502 OFFCURVE",
"1083 553 CURVE",
"1231 419 LINE SMOOTH",
"1426 239 OFFCURVE",
"1631 38 OFFCURVE",
"1896 -246 CURVE"
);
},
{
closed = 1;
nodes = (
"550 -54 OFFCURVE",
"862 17 OFFCURVE",
"1366 84 CURVE",
"1366 131 LINE",
"925 160 OFFCURVE",
"543 228 OFFCURVE",
"362 303 CURVE",
"378 220 OFFCURVE",
"387 144 OFFCURVE",
"387 72 CURVE SMOOTH",
"387 56 LINE SMOOTH",
"387 -9 OFFCURVE",
"382 -79 OFFCURVE",
"377 -139 CURVE"
);
},
{
closed = 1;
nodes = (
"566 893 OFFCURVE",
"904 962 OFFCURVE",
"1352 1022 CURVE",
"1352 1067 LINE",
"887 1100 OFFCURVE",
"526 1164 OFFCURVE",
"350 1239 CURVE",
"369 1156 OFFCURVE",
"376 1081 OFFCURVE",
"376 1009 CURVE SMOOTH",
"376 936 OFFCURVE",
"369 866 OFFCURVE",
"358 797 CURVE"
);
},
{
closed = 1;
nodes = (
"1840 488 OFFCURVE",
"2013 554 OFFCURVE",
"2253 606 CURVE",
"2253 649 LINE",
"1969 688 OFFCURVE",
"1784 758 OFFCURVE",
"1692 821 CURVE",
"1709 740 OFFCURVE",
"1715 665 OFFCURVE",
"1715 593 CURVE SMOOTH",
"1715 520 OFFCURVE",
"1709 450 OFFCURVE",
"1700 379 CURVE"
);
}
);
width = 2533;
}
);
note = g28;
},
{
glyphname = g29;
lastChange = "2016-11-10 14:18:36 +0000";
layers = (
{
layerId = "0DE403EA-09CA-4A47-A866-F104DE4946EE";
paths = (
{
closed = 1;
nodes = (
"1604 -215 LINE",
"1365 164 OFFCURVE",
"1210 429 OFFCURVE",
"1118 600 CURVE",
"1213 791 LINE SMOOTH",
"1332 1032 OFFCURVE",
"1463 1313 OFFCURVE",
"1559 1530 CURVE",
"1516 1550 LINE",
"1272 1203 OFFCURVE",
"938 795 OFFCURVE",
"725 575 CURVE",
"874 440 LINE SMOOTH",
"1058 273 OFFCURVE",
"1304 31 OFFCURVE",
"1561 -246 CURVE"
);
},
{
closed = 1;
nodes = (
"608 -229 LINE",
"632 631 OFFCURVE",
"671 1109 OFFCURVE",
"778 1505 CURVE",
"701 1490 OFFCURVE",
"625 1483 OFFCURVE",
"552 1483 CURVE SMOOTH",
"478 1483 OFFCURVE",
"406 1490 OFFCURVE",
"336 1505 CURVE",
"436 1146 OFFCURVE",
"465 905 OFFCURVE",
"494 587 CURVE SMOOTH",
"509 428 OFFCURVE",
"529 156 OFFCURVE",
"555 -229 CURVE"
);
},
{
closed = 1;
nodes = (
"1521 523 OFFCURVE",
"1743 592 OFFCURVE",
"2054 645 CURVE",
"2054 694 LINE",
"1701 725 OFFCURVE",
"1477 795 OFFCURVE",
"1364 864 CURVE",
"1377 781 OFFCURVE",
"1383 705 OFFCURVE",
"1383 633 CURVE SMOOTH",
"1383 561 OFFCURVE",
"1379 491 OFFCURVE",
"1374 422 CURVE"
);
}
);
width = 2316;
}
);
note = g29;
},
{
glyphname = g30;
lastChange = "2016-11-10 14:18:36 +0000";
layers = (
{
layerId = "0DE403EA-09CA-4A47-A866-F104DE4946EE";
paths = (
{
closed = 1;
nodes = (
"1049 -229 LINE",
"1057 55 OFFCURVE",
"1067 300 OFFCURVE",
"1080 506 CURVE SMOOTH",
"1104 918 OFFCURVE",
"1136 1198 OFFCURVE",
"1219 1507 CURVE",
"1142 1491 OFFCURVE",
"1066 1483 OFFCURVE",
"992 1483 CURVE SMOOTH",
"918 1483 OFFCURVE",
"846 1491 OFFCURVE",
"776 1507 CURVE",
"821 1344 OFFCURVE",
"855 1196 OFFCURVE",
"876 1064 CURVE SMOOTH",
"919 799 OFFCURVE",
"948 500 OFFCURVE",
"995 -229 CURVE"
);
},
{
closed = 1;
nodes = (
"394 465 OFFCURVE",
"551 531 OFFCURVE",
"840 606 CURVE",
"840 649 LINE",
"553 698 OFFCURVE",
"375 758 OFFCURVE",
"279 823 CURVE",
"296 740 OFFCURVE",
"302 666 OFFCURVE",
"302 594 CURVE SMOOTH",
"302 521 OFFCURVE",
"295 452 OFFCURVE",
"287 381 CURVE"
);
},
{
closed = 1;
nodes = (
"1481 24 OFFCURVE",
"1752 90 OFFCURVE",
"2267 158 CURVE",
"2267 205 LINE",
"1828 236 OFFCURVE",
"1470 302 OFFCURVE",
"1290 375 CURVE",
"1306 292 OFFCURVE",
"1314 220 OFFCURVE",
"1314 139 CURVE SMOOTH",
"1314 64 OFFCURVE",
"1307 -4 OFFCURVE",
"1300 -68 CURVE"
);
},
{
closed = 1;
nodes = (
"1760 507 OFFCURVE",
"2029 573 OFFCURVE",
"2460 633 CURVE",
"2460 682 LINE",
"2037 711 OFFCURVE",
"1732 773 OFFCURVE",
"1556 852 CURVE",
"1572 769 OFFCURVE",
"1580 695 OFFCURVE",
"1580 615 CURVE SMOOTH",
"1580 539 OFFCURVE",
"1573 474 OFFCURVE",
"1565 410 CURVE"
);
},
{
closed = 1;
nodes = (
"1491 969 OFFCURVE",
"1797 1037 OFFCURVE",
"2249 1094 CURVE",
"2249 1143 LINE",
"1816 1171 OFFCURVE",
"1458 1236 OFFCURVE",
"1278 1313 CURVE",
"1295 1230 OFFCURVE",
"1302 1154 OFFCURVE",
"1302 1082 CURVE SMOOTH",
"1302 1009 OFFCURVE",
"1295 939 OFFCURVE",
"1286 870 CURVE"
);
}
);
width = 2738;
}
);
note = g30;
},
{
glyphname = g31;
lastChange = "2016-11-10 14:18:36 +0000";
layers = (
{
layerId = "0DE403EA-09CA-4A47-A866-F104DE4946EE";
paths = (
{
closed = 1;
nodes = (
"1171 643 LINE",
"1178 734 OFFCURVE",
"1185 816 OFFCURVE",
"1196 895 CURVE",
"1291 904 OFFCURVE",
"1398 913 OFFCURVE",
"1517 922 CURVE SMOOTH",
"1925 952 LINE",
"1925 1006 LINE",
"1636 1017 OFFCURVE",
"1414 1025 OFFCURVE",
"1214 1040 CURVE",
"1251 1277 OFFCURVE",
"1296 1442 OFFCURVE",
"1341 1546 CURVE",
"1260 1529 OFFCURVE",
"1185 1522 OFFCURVE",
"1113 1522 CURVE SMOOTH",
"1041 1522 OFFCURVE",
"972 1529 OFFCURVE",
"901 1538 CURVE",
"965 1411 OFFCURVE",
"1014 1254 OFFCURVE",
"1055 1053 CURVE",
"776 1074 OFFCURVE",
"534 1109 OFFCURVE",
"307 1176 CURVE",
"324 1099 OFFCURVE",
"333 1024 OFFCURVE",
"333 951 CURVE SMOOTH",
"333 877 OFFCURVE",
"324 806 OFFCURVE",
"307 737 CURVE",
"571 814 OFFCURVE",
"747 847 OFFCURVE",
"1087 883 CURVE",
"1100 811 OFFCURVE",
"1112 734 OFFCURVE",
"1124 643 CURVE"
);
},
{
closed = 1;
nodes = (
"858 -281 LINE",
"889 152 OFFCURVE",
"951 504 OFFCURVE",
"1028 696 CURVE",
"945 681 OFFCURVE",
"872 673 OFFCURVE",
"791 673 CURVE SMOOTH",
"715 673 OFFCURVE",
"650 679 OFFCURVE",
"586 686 CURVE",
"677 507 OFFCURVE",
"744 232 OFFCURVE",
"809 -281 CURVE"
);
},
{
closed = 1;
nodes = (
"1544 -262 LINE",
"1571 151 OFFCURVE",
"1635 515 OFFCURVE",
"1714 711 CURVE",
"1631 691 OFFCURVE",
"1556 685 OFFCURVE",
"1484 685 CURVE SMOOTH",
"1412 685 OFFCURVE",
"1342 693 OFFCURVE",
"1274 702 CURVE",
"1369 501 OFFCURVE",
"1440 191 OFFCURVE",
"1497 -262 CURVE"
);
}
);
width = 2214;
}
);
note = g31;
},
{
glyphname = g32;
lastChange = "2016-11-10 14:18:37 +0000";
layers = (
{
layerId = "0DE403EA-09CA-4A47-A866-F104DE4946EE";
paths = (
{
closed = 1;
nodes = (
"1602 -229 LINE",
"1611 107 OFFCURVE",
"1622 374 OFFCURVE",
"1637 594 CURVE SMOOTH",
"1652 813 OFFCURVE",
"1670 984 OFFCURVE",
"1692 1129 CURVE SMOOTH",
"1714 1274 OFFCURVE",
"1740 1392 OFFCURVE",
"1772 1507 CURVE",
"1694 1491 OFFCURVE",
"1618 1483 OFFCURVE",
"1544 1483 CURVE SMOOTH",
"1470 1483 OFFCURVE",
"1398 1491 OFFCURVE",
"1329 1507 CURVE",
"1366 1372 OFFCURVE",
"1396 1252 OFFCURVE",
"1421 1113 CURVE SMOOTH",
"1445 974 OFFCURVE",
"1465 816 OFFCURVE",
"1485 604 CURVE SMOOTH",
"1505 391 OFFCURVE",
"1524 126 OFFCURVE",
"1548 -229 CURVE"
);
},
{
closed = 1;
nodes = (
"534 -53 OFFCURVE",
"646 -13 OFFCURVE",
"800 24 CURVE SMOOTH",
"954 60 OFFCURVE",
"1150 96 OFFCURVE",
"1411 131 CURVE",
"1411 178 LINE",
"926 211 OFFCURVE",
"599 279 OFFCURVE",
"438 348 CURVE",
"457 265 OFFCURVE",
"463 190 OFFCURVE",
"463 118 CURVE SMOOTH",
"463 45 OFFCURVE",
"455 -25 OFFCURVE",
"446 -94 CURVE"
);
},
{
closed = 1;
nodes = (
"655 463 OFFCURVE",
"748 503 OFFCURVE",
"876 540 CURVE SMOOTH",
"1003 577 OFFCURVE",
"1166 612 OFFCURVE",
"1370 645 CURVE",
"1370 692 LINE",
"1178 708 OFFCURVE",
"1012 735 OFFCURVE",
"878 765 CURVE SMOOTH",
"744 795 OFFCURVE",
"642 829 OFFCURVE",
"582 862 CURVE",
"599 779 OFFCURVE",
"606 704 OFFCURVE",
"606 632 CURVE SMOOTH",
"606 560 OFFCURVE",
"599 491 OFFCURVE",
"590 422 CURVE"
);
},
{
closed = 1;
nodes = (
"432 956 OFFCURVE",
"543 996 OFFCURVE",
"697 1033 CURVE SMOOTH",
"851 1070 OFFCURVE",
"1048 1106 OFFCURVE",
"1309 1139 CURVE",
"1309 1188 LINE",
"1066 1204 OFFCURVE",
"864 1229 OFFCURVE",
"701 1259 CURVE SMOOTH",
"538 1289 OFFCURVE",
"417 1323 OFFCURVE",
"336 1358 CURVE",
"355 1275 OFFCURVE",
"360 1199 OFFCURVE",
"360 1127 CURVE SMOOTH",
"360 1054 OFFCURVE",
"353 984 OFFCURVE",
"344 915 CURVE"
);
}
);
width = 2107;
}
);
note = g32;
},
{
glyphname = g33;
lastChange = "2016-11-10 14:18:37 +0000";
layers = (
{
layerId = "0DE403EA-09CA-4A47-A866-F104DE4946EE";
paths = (
{
closed = 1;
nodes = (
"1841 -215 LINE",
"1604 165 OFFCURVE",
"1447 428 OFFCURVE",
"1356 600 CURVE",
"1451 791 LINE SMOOTH",
"1571 1034 OFFCURVE",
"1688 1286 OFFCURVE",
"1796 1530 CURVE",
"1753 1550 LINE",
"1488 1179 OFFCURVE",
"1191 816 OFFCURVE",
"987 600 CURVE",
"671 635 OFFCURVE",
"416 697 OFFCURVE",
"281 770 CURVE",
"304 689 OFFCURVE",
"312 614 OFFCURVE",
"312 542 CURVE SMOOTH",
"312 469 OFFCURVE",
"303 399 OFFCURVE",
"291 330 CURVE",
"495 445 OFFCURVE",
"704 502 OFFCURVE",
"989 551 CURVE",
"1136 417 LINE SMOOTH",
"1309 257 OFFCURVE",
"1545 25 OFFCURVE",
"1798 -246 CURVE"
);
},
{
closed = 1;
nodes = (
"2376 -215 LINE",
"2140 165 OFFCURVE",
"1982 429 OFFCURVE",
"1894 600 CURVE",
"2047 909 OFFCURVE",
"2206 1250 OFFCURVE",
"2333 1530 CURVE",
"2290 1550 LINE",
"2042 1197 OFFCURVE",
"1724 807 OFFCURVE",
"1499 575 CURVE",
"1835 274 OFFCURVE",
"2069 39 OFFCURVE",
"2337 -246 CURVE"
);
}
);
width = 2599;
}
);
note = g33;
},
{
glyphname = g34;
lastChange = "2016-11-10 14:18:37 +0000";
layers = (
{
layerId = "0DE403EA-09CA-4A47-A866-F104DE4946EE";
paths = (
{
closed = 1;
nodes = (
"1724 -229 LINE",
"1747 603 OFFCURVE",
"1783 1094 OFFCURVE",
"1894 1507 CURVE",
"1817 1491 OFFCURVE",
"1741 1483 OFFCURVE",
"1668 1483 CURVE SMOOTH",
"1594 1483 OFFCURVE",
"1522 1491 OFFCURVE",
"1452 1507 CURVE",
"1497 1344 OFFCURVE",
"1531 1196 OFFCURVE",
"1552 1064 CURVE SMOOTH",
"1595 799 OFFCURVE",
"1624 500 OFFCURVE",
"1671 -229 CURVE"
);
},
{
closed = 1;
nodes = (
"767 35 OFFCURVE",
"1016 99 OFFCURVE",
"1475 162 CURVE",
"1475 211 LINE",
"1050 243 OFFCURVE",
"735 308 OFFCURVE",
"571 381 CURVE",
"588 298 OFFCURVE",
"596 223 OFFCURVE",
"596 151 CURVE SMOOTH",
"596 79 OFFCURVE",
"589 10 OFFCURVE",
"580 -61 CURVE"
);
},
{
closed = 1;
nodes = (
"512 498 OFFCURVE",
"777 561 OFFCURVE",
"1266 625 CURVE",
"1266 672 LINE",
"777 705 OFFCURVE",
"453 775 OFFCURVE",
"293 842 CURVE",
"312 759 OFFCURVE",
"319 684 OFFCURVE",
"319 612 CURVE SMOOTH",
"319 540 OFFCURVE",
"312 470 OFFCURVE",
"301 401 CURVE"
);
},
{
closed = 1;
nodes = (
"783 978 OFFCURVE",
"1040 1039 OFFCURVE",
"1475 1100 CURVE",
"1475 1147 LINE",
"1086 1174 OFFCURVE",
"755 1238 OFFCURVE",
"571 1317 CURVE",
"588 1234 OFFCURVE",
"596 1160 OFFCURVE",
"596 1088 CURVE SMOOTH",
"596 1016 OFFCURVE",
"589 948 OFFCURVE",
"580 877 CURVE"
);
}
);
width = 2230;
}
);
note = g34;
},
{
glyphname = g35;
lastChange = "2016-11-10 14:18:37 +0000";
layers = (
{
layerId = "0DE403EA-09CA-4A47-A866-F104DE4946EE";
paths = (
{
closed = 1;
nodes = (
"608 -229 LINE",
"633 664 OFFCURVE",
"673 1130 OFFCURVE",
"778 1507 CURVE",
"701 1491 OFFCURVE",
"625 1483 OFFCURVE",
"552 1483 CURVE SMOOTH",
"478 1483 OFFCURVE",
"406 1491 OFFCURVE",
"336 1507 CURVE",
"383 1336 OFFCURVE",
"418 1179 OFFCURVE",
"441 1036 CURVE SMOOTH",
"486 751 OFFCURVE",
"519 319 OFFCURVE",
"555 -229 CURVE"
);
},
{
closed = 1;
nodes = (
"1041 24 OFFCURVE",
"1312 90 OFFCURVE",
"1827 158 CURVE",
"1827 205 LINE",
"1395 236 OFFCURVE",
"1034 300 OFFCURVE",
"850 375 CURVE",
"866 292 OFFCURVE",
"874 220 OFFCURVE",
"874 139 CURVE SMOOTH",
"874 64 OFFCURVE",
"867 -4 OFFCURVE",
"860 -68 CURVE"
);
},
{
closed = 1;
nodes = (
"1321 509 OFFCURVE",
"1596 573 OFFCURVE",
"2019 633 CURVE",
"2019 682 LINE",
"1599 711 OFFCURVE",
"1295 772 OFFCURVE",
"1116 852 CURVE",
"1133 769 OFFCURVE",
"1140 693 OFFCURVE",
"1140 621 CURVE SMOOTH",
"1140 549 OFFCURVE",
"1133 479 OFFCURVE",
"1124 410 CURVE"
);
},
{
closed = 1;
nodes = (
"1053 969 OFFCURVE",
"1360 1037 OFFCURVE",
"1808 1094 CURVE",
"1808 1143 LINE",
"1372 1172 OFFCURVE",
"1013 1237 OFFCURVE",
"838 1313 CURVE",
"855 1230 OFFCURVE",
"862 1154 OFFCURVE",
"862 1082 CURVE SMOOTH",
"862 1009 OFFCURVE",
"853 939 OFFCURVE",
"844 870 CURVE"
);
}
);
width = 2298;
}
);
note = g35;
},
{
glyphname = g36;
lastChange = "2016-11-10 14:18:37 +0000";
layers = (
{
layerId = "0DE403EA-09CA-4A47-A866-F104DE4946EE";
paths = (
{
closed = 1;
nodes = (
"2064 -229 LINE",
"2089 664 OFFCURVE",
"2129 1130 OFFCURVE",
"2234 1507 CURVE",
"2157 1491 OFFCURVE",
"2082 1483 OFFCURVE",
"2009 1483 CURVE SMOOTH",
"1935 1483 OFFCURVE",
"1863 1491 OFFCURVE",
"1792 1507 CURVE",
"1837 1344 OFFCURVE",
"1871 1196 OFFCURVE",
"1892 1064 CURVE SMOOTH",
"1935 799 OFFCURVE",
"1964 500 OFFCURVE",
"2011 -229 CURVE"
);
},
{
closed = 1;
nodes = (
"608 -229 LINE",
"633 664 OFFCURVE",
"673 1130 OFFCURVE",
"778 1507 CURVE",
"701 1491 OFFCURVE",
"625 1483 OFFCURVE",
"551 1483 CURVE SMOOTH",
"478 1483 OFFCURVE",
"406 1491 OFFCURVE",
"336 1507 CURVE",
"383 1336 OFFCURVE",
"418 1179 OFFCURVE",
"441 1036 CURVE SMOOTH",
"486 751 OFFCURVE",
"519 319 OFFCURVE",
"555 -229 CURVE"
);
},
{
closed = 1;
nodes = (
"910 541 OFFCURVE",
"1074 606 OFFCURVE",
"1311 662 CURVE",
"1311 591 OFFCURVE",
"1305 524 OFFCURVE",
"1296 459 CURVE",
"1447 568 OFFCURVE",
"1630 635 OFFCURVE",
"1851 684 CURVE",
"1851 725 LINE",
"1568 764 OFFCURVE",
"1381 834 OFFCURVE",
"1288 897 CURVE",
"1303 830 OFFCURVE",
"1308 771 OFFCURVE",
"1311 711 CURVE",
"1038 750 OFFCURVE",
"859 817 OFFCURVE",
"770 881 CURVE",
"786 800 OFFCURVE",
"793 725 OFFCURVE",
"793 652 CURVE SMOOTH",
"793 579 OFFCURVE",
"786 509 OFFCURVE",
"778 438 CURVE"
);
}
);
width = 2570;
}
);
note = g36;
},
{
glyphname = g37;
lastChange = "2016-11-10 14:18:37 +0000";
layers = (
{
layerId = "0DE403EA-09CA-4A47-A866-F104DE4946EE";
paths = (
{
closed = 1;
nodes = (
"1878 -223 LINE",
"1638 56 OFFCURVE",
"1478 253 OFFCURVE",
"1391 381 CURVE",
"1486 522 LINE SMOOTH",
"1615 715 OFFCURVE",
"1733 898 OFFCURVE",
"1833 1065 CURVE",
"1796 1096 LINE",
"1567 848 OFFCURVE",
"1263 575 OFFCURVE",
"979 362 CURVE",
"1051 314 OFFCURVE",
"1121 268 OFFCURVE",
"1190 223 CURVE SMOOTH",
"1259 178 OFFCURVE",
"1334 126 OFFCURVE",
"1415 67 CURVE SMOOTH",
"1578 -52 OFFCURVE",
"1694 -142 OFFCURVE",
"1841 -262 CURVE"
);
},
{
closed = 1;
nodes = (
"1225 -223 LINE",
"989 56 OFFCURVE",
"830 252 OFFCURVE",
"741 381 CURVE",
"836 522 LINE SMOOTH",
"981 738 OFFCURVE",
"1076 886 OFFCURVE",
"1184 1065 CURVE",
"1143 1096 LINE",
"903 835 OFFCURVE",
"589 555 OFFCURVE",
"332 362 CURVE",
"378 333 OFFCURVE",
"476 268 OFFCURVE",
"626 167 CURVE SMOOTH",
"776 66 OFFCURVE",
"965 -77 OFFCURVE",
"1192 -262 CURVE"
);
},
{
closed = 1;
nodes = (
"644 1172 OFFCURVE",
"890 1204 OFFCURVE",
"1219 1235 CURVE SMOOTH",
"1384 1250 OFFCURVE",
"1662 1271 OFFCURVE",
"2054 1298 CURVE",
"2054 1352 LINE",
"1263 1373 OFFCURVE",
"732 1410 OFFCURVE",
"317 1522 CURVE",
"334 1445 OFFCURVE",
"342 1369 OFFCURVE",
"342 1295 CURVE SMOOTH",
"342 1222 OFFCURVE",
"334 1150 OFFCURVE",
"317 1081 CURVE"
);
}
);
width = 2333;
}
);
note = g37;
},
{
glyphname = g38;
lastChange = "2016-11-10 14:18:37 +0000";
layers = (
{
layerId = "0DE403EA-09CA-4A47-A866-F104DE4946EE";
paths = (
{
closed = 1;
nodes = (
"564 752 OFFCURVE",
"869 820 OFFCURVE",
"1436 887 CURVE",
"1436 936 LINE",
"935 969 OFFCURVE",
"537 1035 OFFCURVE",
"356 1106 CURVE",
"376 1023 OFFCURVE",
"386 950 OFFCURVE",
"386 870 CURVE SMOOTH",
"386 794 OFFCURVE",
"379 729 OFFCURVE",
"371 664 CURVE"
);
},
{
closed = 1;
nodes = (
"707 -219 LINE",
"730 172 OFFCURVE",
"772 436 OFFCURVE",
"877 639 CURVE",
"805 630 OFFCURVE",
"738 626 OFFCURVE",
"673 626 CURVE SMOOTH",
"646 626 LINE SMOOTH",
"573 627 OFFCURVE",
"503 632 OFFCURVE",
"434 639 CURVE",
"543 430 OFFCURVE",
"582 268 OFFCURVE",
"653 -219 CURVE"
);
},
{
closed = 1;
nodes = (
"1212 -219 LINE",
"1237 192 OFFCURVE",
"1282 446 OFFCURVE",
"1382 639 CURVE",
"1310 630 OFFCURVE",
"1244 626 OFFCURVE",
"1179 626 CURVE SMOOTH",
"1152 626 LINE SMOOTH",
"1079 627 OFFCURVE",
"1009 632 OFFCURVE",
"940 639 CURVE",
"1055 419 OFFCURVE",
"1095 217 OFFCURVE",
"1159 -219 CURVE"
);
},
{
closed = 1;
nodes = (
"576 1248 OFFCURVE",
"900 1317 OFFCURVE",
"1436 1380 CURVE",
"1436 1427 LINE",
"964 1458 OFFCURVE",
"564 1522 OFFCURVE",
"356 1597 CURVE",
"376 1516 OFFCURVE",
"386 1443 OFFCURVE",
"386 1363 CURVE SMOOTH",
"386 1287 OFFCURVE",
"379 1222 OFFCURVE",
"371 1157 CURVE"
);
}
);
width = 1776;
}
);
note = g38;
},
{
glyphname = g39;
lastChange = "2016-11-10 14:18:37 +0000";
layers = (
{
layerId = "0DE403EA-09CA-4A47-A866-F104DE4946EE";
paths = (
{
closed = 1;
nodes = (
"1128 -215 LINE",
"891 166 OFFCURVE",
"734 428 OFFCURVE",
"647 600 CURVE",
"819 947 OFFCURVE",
"947 1225 OFFCURVE",
"1083 1530 CURVE",
"1042 1550 LINE",
"767 1165 OFFCURVE",
"458 790 OFFCURVE",
"250 575 CURVE",
"567 295 OFFCURVE",
"813 47 OFFCURVE",
"1085 -246 CURVE"
);
},
{
closed = 1;
nodes = (
"1208 161 OFFCURVE",
"1379 225 OFFCURVE",
"1618 276 CURVE",
"1618 317 LINE",
"1334 358 OFFCURVE",
"1153 428 OFFCURVE",
"1057 492 CURVE",
"1072 411 OFFCURVE",
"1077 335 OFFCURVE",
"1077 263 CURVE SMOOTH",
"1077 190 OFFCURVE",
"1072 120 OFFCURVE",
"1065 49 CURVE"
);
},
{
closed = 1;
nodes = (
"1212 793 OFFCURVE",
"1383 857 OFFCURVE",
"1618 909 CURVE",
"1618 948 LINE",
"1375 983 OFFCURVE",
"1168 1049 OFFCURVE",
"1057 1122 CURVE",
"1072 1042 OFFCURVE",
"1077 967 OFFCURVE",
"1077 895 CURVE SMOOTH",
"1077 822 OFFCURVE",
"1072 751 OFFCURVE",
"1065 682 CURVE"
);
},
{
closed = 1;
nodes = (
"2417 -215 LINE",
"2181 164 OFFCURVE",
"2025 429 OFFCURVE",
"1937 600 CURVE",
"2031 791 LINE SMOOTH",
"2147 1028 OFFCURVE",
"2259 1273 OFFCURVE",
"2374 1530 CURVE",
"2331 1550 LINE",
"2074 1183 OFFCURVE",
"1749 787 OFFCURVE",
"1544 575 CURVE",
"1693 440 LINE SMOOTH",
"1881 267 OFFCURVE",
"2117 35 OFFCURVE",
"2380 -246 CURVE"
);
}
);
width = 2640;
}
);
note = g39;
},
{
glyphname = g40;
lastChange = "2016-11-10 14:18:37 +0000";
layers = (
{
layerId = "0DE403EA-09CA-4A47-A866-F104DE4946EE";
paths = (
{
closed = 1;
nodes = (
"2796 -215 LINE",
"2559 165 OFFCURVE",
"2399 429 OFFCURVE",
"2310 600 CURVE",
"2405 791 LINE SMOOTH",
"2525 1034 OFFCURVE",
"2642 1286 OFFCURVE",
"2750 1530 CURVE",
"2707 1550 LINE",
"2440 1175 OFFCURVE",
"2116 780 OFFCURVE",
"1917 575 CURVE",
"2292 239 OFFCURVE",
"2512 14 OFFCURVE",
"2753 -246 CURVE"
);
},
{
closed = 1;
nodes = (
"445 142 OFFCURVE",
"621 209 OFFCURVE",
"854 260 CURVE",
"854 225 OFFCURVE",
"853 190 OFFCURVE",
"852 157 CURVE SMOOTH",
"846 55 LINE",
"967 138 OFFCURVE",
"1163 207 OFFCURVE",
"1554 279 CURVE",
"1554 326 LINE",
"1213 359 OFFCURVE",
"955 423 OFFCURVE",
"838 496 CURVE",
"849 429 OFFCURVE",
"851 368 OFFCURVE",
"854 309 CURVE",
"605 348 OFFCURVE",
"414 416 OFFCURVE",
"313 485 CURVE",
"329 405 OFFCURVE",
"336 329 OFFCURVE",
"336 257 CURVE SMOOTH",
"336 184 OFFCURVE",
"330 114 OFFCURVE",
"322 43 CURVE"
);
},
{
closed = 1;
nodes = (
"447 865 OFFCURVE",
"623 933 OFFCURVE",
"854 985 CURVE",
"854 949 OFFCURVE",
"853 914 OFFCURVE",
"852 880 CURVE SMOOTH",
"846 778 LINE",
"977 870 OFFCURVE",
"1209 942 OFFCURVE",
"1554 1001 CURVE",
"1554 1051 LINE",
"1213 1084 OFFCURVE",
"955 1148 OFFCURVE",
"838 1221 CURVE",
"849 1154 OFFCURVE",
"851 1093 OFFCURVE",
"854 1034 CURVE",
"615 1069 OFFCURVE",
"421 1135 OFFCURVE",
"313 1210 CURVE",
"329 1130 OFFCURVE",
"336 1054 OFFCURVE",
"336 982 CURVE SMOOTH",
"336 909 OFFCURVE",
"330 839 OFFCURVE",
"322 768 CURVE"
);
},
{
closed = 1;
nodes = (
"1800 -229 LINE",
"1831 751 OFFCURVE",
"1875 1156 OFFCURVE",
"1970 1505 CURVE",
"1893 1490 OFFCURVE",
"1818 1483 OFFCURVE",
"1744 1483 CURVE SMOOTH",
"1671 1483 OFFCURVE",
"1599 1490 OFFCURVE",
"1528 1505 CURVE",
"1628 1146 OFFCURVE",
"1657 905 OFFCURVE",
"1686 587 CURVE SMOOTH",
"1701 428 OFFCURVE",
"1721 156 OFFCURVE",
"1747 -229 CURVE"
);
}
);
width = 3019;
}
);
note = g40;
},
{
glyphname = g41;
lastChange = "2016-11-10 14:18:37 +0000";
layers = (
{
layerId = "0DE403EA-09CA-4A47-A866-F104DE4946EE";
paths = (
{
closed = 1;
nodes = (
"435 718 OFFCURVE",
"605 785 OFFCURVE",
"852 838 CURVE",
"852 766 OFFCURVE",
"847 699 OFFCURVE",
"840 631 CURVE",
"971 726 OFFCURVE",
"1138 787 OFFCURVE",
"1374 840 CURVE",
"1374 769 OFFCURVE",
"1371 705 OFFCURVE",
"1364 641 CURVE",
"1503 732 OFFCURVE",
"1742 802 OFFCURVE",
"2073 858 CURVE",
"2073 905 LINE",
"1734 933 OFFCURVE",
"1472 996 OFFCURVE",
"1356 1067 CURVE",
"1366 1004 OFFCURVE",
"1372 944 OFFCURVE",
"1374 887 CURVE",
"1157 919 OFFCURVE",
"956 977 OFFCURVE",
"831 1057 CURVE",
"842 997 OFFCURVE",
"847 942 OFFCURVE",
"850 889 CURVE",
"611 925 OFFCURVE",
"418 985 OFFCURVE",
"315 1057 CURVE",
"329 984 OFFCURVE",
"336 916 OFFCURVE",
"336 851 CURVE SMOOTH",
"336 835 LINE SMOOTH",
"335 766 OFFCURVE",
"330 698 OFFCURVE",
"322 631 CURVE"
);
},
{
closed = 1;
nodes = (
"976 -188 OFFCURVE",
"1149 -129 OFFCURVE",
"1374 -82 CURVE",
"1374 -150 OFFCURVE",
"1371 -212 OFFCURVE",
"1364 -279 CURVE",
"1492 -194 OFFCURVE",
"1705 -126 OFFCURVE",
"2073 -63 CURVE",
"2073 -16 LINE",
"1717 16 OFFCURVE",
"1469 81 OFFCURVE",
"1356 150 CURVE",
"1367 83 OFFCURVE",
"1371 26 OFFCURVE",
"1374 -33 CURVE",
"1162 -6 OFFCURVE",
"967 52 OFFCURVE",
"831 139 CURVE",
"846 65 OFFCURVE",
"853 -5 OFFCURVE",
"853 -71 CURVE SMOOTH",
"853 -83 LINE SMOOTH",
"852 -153 OFFCURVE",
"847 -222 OFFCURVE",
"840 -291 CURVE"
);
},
{
closed = 1;
nodes = (
"437 262 OFFCURVE",
"611 326 OFFCURVE",
"852 377 CURVE",
"852 306 OFFCURVE",
"847 241 OFFCURVE",
"840 170 CURVE",
"963 266 OFFCURVE",
"1139 328 OFFCURVE",
"1374 379 CURVE",
"1374 311 OFFCURVE",
"1371 247 OFFCURVE",
"1364 180 CURVE",
"1504 272 OFFCURVE",
"1728 338 OFFCURVE",
"2073 397 CURVE",
"2073 442 LINE",
"1717 477 OFFCURVE",
"1469 539 OFFCURVE",
"1356 606 CURVE",
"1366 543 OFFCURVE",
"1372 483 OFFCURVE",
"1374 426 CURVE",
"1143 459 OFFCURVE",
"947 521 OFFCURVE",
"831 596 CURVE",
"842 536 OFFCURVE",
"849 481 OFFCURVE",
"852 428 CURVE",
"603 465 OFFCURVE",
"418 527 OFFCURVE",
"315 596 CURVE",
"331 517 OFFCURVE",
"336 445 OFFCURVE",
"336 376 CURVE SMOOTH",
"336 305 OFFCURVE",
"330 238 OFFCURVE",
"322 170 CURVE"
);
},
{
closed = 1;
nodes = (
"980 1195 OFFCURVE",
"1153 1255 OFFCURVE",
"1374 1303 CURVE",
"1374 1235 OFFCURVE",
"1371 1170 OFFCURVE",
"1364 1102 CURVE",
"1496 1194 OFFCURVE",
"1708 1258 OFFCURVE",
"2073 1321 CURVE",
"2073 1366 LINE",
"1717 1399 OFFCURVE",
"1469 1459 OFFCURVE",
"1356 1532 CURVE",
"1367 1465 OFFCURVE",
"1371 1407 OFFCURVE",
"1374 1350 CURVE",
"1130 1386 OFFCURVE",
"938 1447 OFFCURVE",
"831 1524 CURVE",
"847 1444 OFFCURVE",
"852 1370 OFFCURVE",
"852 1299 CURVE SMOOTH",
"852 1228 OFFCURVE",
"847 1161 OFFCURVE",
"840 1094 CURVE"
);
},
{
closed = 1;
nodes = (
"2316 -229 LINE",
"2344 643 OFFCURVE",
"2383 1122 OFFCURVE",
"2486 1507 CURVE",
"2410 1491 OFFCURVE",
"2335 1483 OFFCURVE",
"2262 1483 CURVE SMOOTH",
"2188 1483 OFFCURVE",
"2117 1491 OFFCURVE",
"2048 1507 CURVE",
"2104 1304 OFFCURVE",
"2145 1101 OFFCURVE",
"2170 897 CURVE SMOOTH",
"2195 692 OFFCURVE",
"2226 317 OFFCURVE",
"2263 -229 CURVE"
);
}
);
width = 2822;
}
);
note = g41;
},
{
glyphname = g42;
lastChange = "2016-11-10 14:18:37 +0000";
layers = (
{
layerId = "0DE403EA-09CA-4A47-A866-F104DE4946EE";
paths = (
{
closed = 1;
nodes = (
"3308 -213 LINE",
"3071 164 OFFCURVE",
"2911 429 OFFCURVE",
"2822 602 CURVE",
"2981 915 OFFCURVE",
"3117 1207 OFFCURVE",
"3260 1530 CURVE",
"3222 1552 LINE",
"2962 1187 OFFCURVE",
"2620 769 OFFCURVE",
"2429 578 CURVE",
"2579 442 LINE SMOOTH",
"2775 263 OFFCURVE",
"2993 47 OFFCURVE",
"3265 -246 CURVE"
);
},
{
closed = 1;
nodes = (
"981 -187 OFFCURVE",
"1151 -129 OFFCURVE",
"1374 -82 CURVE",
"1374 -150 OFFCURVE",
"1371 -214 OFFCURVE",
"1364 -281 CURVE",
"1488 -196 OFFCURVE",
"1687 -131 OFFCURVE",
"2071 -63 CURVE",
"2071 -16 LINE",
"1718 16 OFFCURVE",
"1469 81 OFFCURVE",
"1356 150 CURVE",
"1367 83 OFFCURVE",
"1371 26 OFFCURVE",
"1374 -33 CURVE",
"1157 -5 OFFCURVE",
"962 54 OFFCURVE",
"831 137 CURVE",
"845 65 OFFCURVE",
"852 -3 OFFCURVE",
"852 -68 CURVE SMOOTH",
"852 -84 LINE SMOOTH",
"851 -154 OFFCURVE",
"846 -223 OFFCURVE",
"838 -291 CURVE"
);
},
{
closed = 1;
nodes = (
"438 262 OFFCURVE",
"623 329 OFFCURVE",
"852 377 CURVE",
"852 306 OFFCURVE",
"846 238 OFFCURVE",
"838 170 CURVE",
"971 267 OFFCURVE",
"1137 328 OFFCURVE",
"1374 379 CURVE",
"1374 311 OFFCURVE",
"1371 247 OFFCURVE",
"1364 180 CURVE",
"1497 269 OFFCURVE",
"1742 341 OFFCURVE",
"2071 397 CURVE",
"2071 442 LINE",
"1719 477 OFFCURVE",
"1469 537 OFFCURVE",
"1356 606 CURVE",
"1366 543 OFFCURVE",
"1372 483 OFFCURVE",
"1374 426 CURVE",
"1101 467 OFFCURVE",
"924 535 OFFCURVE",
"831 596 CURVE",
"842 536 OFFCURVE",
"847 481 OFFCURVE",
"850 428 CURVE",
"606 464 OFFCURVE",
"424 525 OFFCURVE",
"313 596 CURVE",
"329 517 OFFCURVE",
"336 444 OFFCURVE",
"336 375 CURVE SMOOTH",
"336 304 OFFCURVE",
"330 238 OFFCURVE",
"322 170 CURVE"
);
},
{
closed = 1;
nodes = (
"427 712 OFFCURVE",
"591 779 OFFCURVE",
"852 838 CURVE",
"852 766 OFFCURVE",
"846 699 OFFCURVE",
"838 631 CURVE",
"977 728 OFFCURVE",
"1142 785 OFFCURVE",
"1374 840 CURVE",
"1374 769 OFFCURVE",
"1371 705 OFFCURVE",
"1364 641 CURVE",
"1492 726 OFFCURVE",
"1707 793 OFFCURVE",
"2071 856 CURVE",
"2071 905 LINE",
"1718 934 OFFCURVE",
"1469 998 OFFCURVE",
"1356 1067 CURVE",
"1366 1004 OFFCURVE",
"1372 944 OFFCURVE",
"1374 885 CURVE",
"1101 926 OFFCURVE",
"924 994 OFFCURVE",
"831 1057 CURVE",
"842 997 OFFCURVE",
"849 940 OFFCURVE",
"852 887 CURVE",
"583 928 OFFCURVE",
"402 997 OFFCURVE",
"313 1057 CURVE",
"329 978 OFFCURVE",
"336 904 OFFCURVE",
"336 835 CURVE SMOOTH",
"336 764 OFFCURVE",
"330 698 OFFCURVE",
"322 631 CURVE"
);
},
{
closed = 1;
nodes = (
"983 1197 OFFCURVE",
"1155 1255 OFFCURVE",
"1374 1303 CURVE",
"1374 1235 OFFCURVE",
"1371 1170 OFFCURVE",
"1364 1102 CURVE",
"1484 1187 OFFCURVE",
"1686 1253 OFFCURVE",
"2071 1321 CURVE",
"2071 1366 LINE",
"1718 1397 OFFCURVE",
"1469 1459 OFFCURVE",
"1356 1530 CURVE",
"1366 1466 OFFCURVE",
"1372 1406 OFFCURVE",
"1374 1350 CURVE",
"1115 1387 OFFCURVE",
"935 1447 OFFCURVE",
"831 1522 CURVE",
"845 1449 OFFCURVE",
"852 1380 OFFCURVE",
"852 1315 CURVE SMOOTH",
"852 1298 LINE SMOOTH",
"851 1229 OFFCURVE",
"846 1161 OFFCURVE",
"838 1094 CURVE"
);
},
{
closed = 1;
nodes = (
"2316 -229 LINE",
"2344 643 OFFCURVE",
"2383 1122 OFFCURVE",
"2486 1507 CURVE",
"2410 1491 OFFCURVE",
"2335 1483 OFFCURVE",
"2262 1483 CURVE SMOOTH",
"2188 1483 OFFCURVE",
"2117 1491 OFFCURVE",
"2048 1507 CURVE",
"2104 1304 OFFCURVE",
"2145 1101 OFFCURVE",
"2170 897 CURVE SMOOTH",
"2195 692 OFFCURVE",
"2226 317 OFFCURVE",
"2263 -229 CURVE"
);
}
);
width = 3531;
}
);
note = g42;
},
{
glyphname = g43;
lastChange = "2016-11-10 14:18:37 +0000";
layers = (
{
layerId = "0DE403EA-09CA-4A47-A866-F104DE4946EE";
paths = (
{
closed = 1;
nodes = (
"3095 -215 LINE",
"2858 165 OFFCURVE",
"2699 429 OFFCURVE",
"2611 600 CURVE",
"2706 791 LINE SMOOTH",
"2801 983 OFFCURVE",
"2945 1294 OFFCURVE",
"3052 1530 CURVE",
"3009 1550 LINE",
"2750 1189 OFFCURVE",
"2423 787 OFFCURVE",
"2218 575 CURVE",
"2367 440 LINE SMOOTH",
"2555 267 OFFCURVE",
"2791 35 OFFCURVE",
"3054 -246 CURVE"
);
},
{
closed = 1;
nodes = (
"442 238 OFFCURVE",
"650 306 OFFCURVE",
"983 367 CURVE",
"983 414 LINE",
"630 446 OFFCURVE",
"406 512 OFFCURVE",
"293 584 CURVE",
"318 424 OFFCURVE",
"314 280 OFFCURVE",
"301 143 CURVE"
);
},
{
closed = 1;
nodes = (
"437 724 OFFCURVE",
"646 793 OFFCURVE",
"983 856 CURVE",
"983 903 LINE",
"628 936 OFFCURVE",
"406 1000 OFFCURVE",
"293 1075 CURVE",
"318 912 OFFCURVE",
"314 770 OFFCURVE",
"301 633 CURVE"
);
},
{
closed = 1;
nodes = (
"1806 -215 LINE",
"1569 166 OFFCURVE",
"1411 428 OFFCURVE",
"1323 600 CURVE",
"1417 791 LINE SMOOTH",
"1517 996 OFFCURVE",
"1648 1279 OFFCURVE",
"1759 1530 CURVE",
"1720 1550 LINE",
"1451 1173 OFFCURVE",
"1133 784 OFFCURVE",
"930 575 CURVE",
"1079 440 LINE SMOOTH",
"1266 268 OFFCURVE",
"1506 33 OFFCURVE",
"1765 -246 CURVE"
);
},
{
closed = 1;
nodes = (
"2101 -229 LINE",
"2125 631 OFFCURVE",
"2164 1109 OFFCURVE",
"2271 1505 CURVE",
"2194 1490 OFFCURVE",
"2118 1483 OFFCURVE",
"2045 1483 CURVE SMOOTH",
"1971 1483 OFFCURVE",
"1899 1490 OFFCURVE",
"1829 1505 CURVE",
"1918 1182 OFFCURVE",
"1946 989 OFFCURVE",
"1981 635 CURVE SMOOTH",
"1998 458 OFFCURVE",
"2021 170 OFFCURVE",
"2048 -229 CURVE"
);
}
);
width = 3318;
}
);
note = g43;
},
{
glyphname = g44;
lastChange = "2016-11-10 14:18:37 +0000";
layers = (
{
layerId = "0DE403EA-09CA-4A47-A866-F104DE4946EE";
paths = (
{
closed = 1;
nodes = (
"1614 -229 LINE",
"1639 664 OFFCURVE",
"1679 1130 OFFCURVE",
"1784 1507 CURVE",
"1707 1491 OFFCURVE",
"1631 1483 OFFCURVE",
"1557 1483 CURVE SMOOTH",
"1484 1483 OFFCURVE",
"1412 1491 OFFCURVE",
"1341 1507 CURVE",
"1388 1337 OFFCURVE",
"1423 1182 OFFCURVE",
"1445 1041 CURVE SMOOTH",
"1489 760 OFFCURVE",
"1522 378 OFFCURVE",
"1561 -229 CURVE"
);
},
{
closed = 1;
nodes = (
"850 -268 LINE",
"786 -149 OFFCURVE",
"677 26 OFFCURVE",
"594 141 CURVE",
"666 258 OFFCURVE",
"745 417 OFFCURVE",
"825 588 CURVE",
"780 612 LINE",
"640 461 OFFCURVE",
"419 257 OFFCURVE",
"258 133 CURVE",
"397 48 OFFCURVE",
"631 -133 OFFCURVE",
"807 -301 CURVE"
);
},
{
closed = 1;
nodes = (
"1321 -268 LINE",
"1257 -153 OFFCURVE",
"1146 28 OFFCURVE",
"1063 141 CURVE",
"1135 258 OFFCURVE",
"1217 417 OFFCURVE",
"1294 588 CURVE",
"1249 612 LINE",
"1106 457 OFFCURVE",
"870 241 OFFCURVE",
"727 133 CURVE",
"880 40 OFFCURVE",
"1107 -138 OFFCURVE",
"1278 -301 CURVE"
);
},
{
closed = 1;
nodes = (
"850 694 LINE",
"779 825 OFFCURVE",
"677 995 OFFCURVE",
"594 1104 CURVE",
"666 1224 OFFCURVE",
"745 1381 OFFCURVE",
"825 1552 CURVE",
"780 1579 LINE",
"628 1412 OFFCURVE",
"405 1209 OFFCURVE",
"258 1098 CURVE",
"405 1007 OFFCURVE",
"647 816 OFFCURVE",
"807 664 CURVE"
);
},
{
closed = 1;
nodes = (
"1321 694 LINE",
"1249 823 OFFCURVE",
"1144 995 OFFCURVE",
"1063 1104 CURVE",
"1135 1224 OFFCURVE",
"1217 1381 OFFCURVE",
"1294 1552 CURVE",
"1249 1579 LINE",
"1096 1410 OFFCURVE",
"860 1197 OFFCURVE",
"727 1098 CURVE",
"887 1001 OFFCURVE",
"1123 811 OFFCURVE",
"1278 664 CURVE"
);
}
);
width = 2120;
}
);
note = g44;
},
{
glyphname = g45;
lastChange = "2016-11-10 14:18:37 +0000";
layers = (
{
layerId = "0DE403EA-09CA-4A47-A866-F104DE4946EE";
paths = (
{
closed = 1;
nodes = (
"1612 -229 LINE",
"1636 624 OFFCURVE",
"1676 1123 OFFCURVE",
"1784 1507 CURVE",
"1706 1491 OFFCURVE",
"1630 1483 OFFCURVE",
"1556 1483 CURVE SMOOTH",
"1482 1483 OFFCURVE",
"1410 1491 OFFCURVE",
"1341 1507 CURVE",
"1461 1074 OFFCURVE",
"1496 760 OFFCURVE",
"1559 -229 CURVE"
);
},
{
closed = 1;
nodes = (
"848 -268 LINE",
"773 -128 OFFCURVE",
"663 46 OFFCURVE",
"594 141 CURVE",
"666 258 OFFCURVE",
"745 417 OFFCURVE",
"825 588 CURVE",
"780 612 LINE",
"640 461 OFFCURVE",
"419 257 OFFCURVE",
"258 133 CURVE",
"397 48 OFFCURVE",
"631 -133 OFFCURVE",
"807 -301 CURVE"
);
},
{
closed = 1;
nodes = (
"1319 -268 LINE",
"1240 -127 OFFCURVE",
"1130 49 OFFCURVE",
"1061 141 CURVE",
"1133 258 OFFCURVE",
"1216 417 OFFCURVE",
"1292 588 CURVE",
"1247 612 LINE",
"1087 439 OFFCURVE",
"866 238 OFFCURVE",
"727 133 CURVE",
"879 38 OFFCURVE",
"1103 -134 OFFCURVE",
"1278 -301 CURVE"
);
},
{
closed = 1;
nodes = (
"848 694 LINE",
"763 853 OFFCURVE",
"662 1013 OFFCURVE",
"594 1104 CURVE",
"666 1224 OFFCURVE",
"745 1381 OFFCURVE",
"825 1552 CURVE",
"780 1579 LINE",
"628 1412 OFFCURVE",
"405 1209 OFFCURVE",
"258 1098 CURVE",
"405 1007 OFFCURVE",
"647 816 OFFCURVE",
"807 664 CURVE"
);
},
{
closed = 1;
nodes = (
"1319 694 LINE",
"1226 862 OFFCURVE",
"1129 1016 OFFCURVE",
"1061 1104 CURVE",
"1133 1224 OFFCURVE",
"1216 1381 OFFCURVE",
"1292 1552 CURVE",
"1247 1579 LINE",
"1075 1391 OFFCURVE",
"855 1193 OFFCURVE",
"727 1098 CURVE",
"887 998 OFFCURVE",
"1119 815 OFFCURVE",
"1278 664 CURVE"
);
},
{
closed = 1;
nodes = (
"2132 -229 LINE",
"2142 77 OFFCURVE",
"2153 328 OFFCURVE",
"2166 525 CURVE SMOOTH",
"2191 917 OFFCURVE",
"2221 1190 OFFCURVE",
"2302 1507 CURVE",
"2225 1491 OFFCURVE",
"2150 1483 OFFCURVE",
"2076 1483 CURVE SMOOTH",
"2003 1483 OFFCURVE",
"1931 1491 OFFCURVE",
"1860 1507 CURVE",
"1956 1163 OFFCURVE",
"1985 933 OFFCURVE",
"2016 606 CURVE SMOOTH",
"2031 442 OFFCURVE",
"2052 164 OFFCURVE",
"2079 -229 CURVE"
);
}
);
width = 2638;
}
);
note = g45;
},
{
glyphname = g46;
lastChange = "2016-11-10 14:18:37 +0000";
layers = (
{
layerId = "0DE403EA-09CA-4A47-A866-F104DE4946EE";
paths = (
{
closed = 1;
nodes = (
"2501 -215 LINE",
"2262 162 OFFCURVE",
"2109 428 OFFCURVE",
"2017 600 CURVE",
"2112 791 LINE SMOOTH",
"2231 1032 OFFCURVE",
"2362 1313 OFFCURVE",
"2458 1530 CURVE",
"2413 1550 LINE",
"2152 1178 OFFCURVE",
"1835 792 OFFCURVE",
"1624 575 CURVE",
"1773 440 LINE SMOOTH",
"1957 273 OFFCURVE",
"2203 31 OFFCURVE",
"2460 -246 CURVE"
);
},
{
closed = 1;
nodes = (
"430 419 OFFCURVE",
"599 486 OFFCURVE",
"823 541 CURVE",
"823 503 OFFCURVE",
"822 466 OFFCURVE",
"821 430 CURVE SMOOTH",
"815 322 LINE",
"936 414 OFFCURVE",
"1145 488 OFFCURVE",
"1520 557 CURVE",
"1520 608 LINE",
"1168 645 OFFCURVE",
"920 717 OFFCURVE",
"805 797 CURVE",
"815 725 OFFCURVE",
"821 657 OFFCURVE",
"823 592 CURVE",
"599 624 OFFCURVE",
"394 697 OFFCURVE",
"281 784 CURVE",
"297 696 OFFCURVE",
"302 614 OFFCURVE",
"302 537 CURVE SMOOTH",
"302 458 OFFCURVE",
"295 383 OFFCURVE",
"287 307 CURVE"
);
},
{
closed = 1;
nodes = (
"3037 -215 LINE",
"2802 165 OFFCURVE",
"2644 429 OFFCURVE",
"2556 600 CURVE",
"2650 791 LINE SMOOTH",
"2754 1003 OFFCURVE",
"2895 1306 OFFCURVE",
"2996 1530 CURVE",
"2953 1550 LINE",
"2684 1173 OFFCURVE",
"2366 784 OFFCURVE",
"2163 575 CURVE",
"2312 440 LINE SMOOTH",
"2499 268 OFFCURVE",
"2739 33 OFFCURVE",
"2998 -246 CURVE"
);
}
);
width = 3262;
}
);
note = g46;
},
{
glyphname = g47;
lastChange = "2016-11-10 14:18:37 +0000";
layers = (
{
layerId = "0DE403EA-09CA-4A47-A866-F104DE4946EE";
paths = (
{
closed = 1;
nodes = (
"934 -225 LINE",
"896 -165 OFFCURVE",
"860 -107 OFFCURVE",
"826 -52 CURVE SMOOTH",
"647 237 LINE SMOOTH",
"622 277 OFFCURVE",
"599 311 OFFCURVE",
"580 340 CURVE",
"675 512 OFFCURVE",
"778 724 OFFCURVE",
"905 981 CURVE",
"856 1008 LINE",
"669 776 OFFCURVE",
"408 505 OFFCURVE",
"225 340 CURVE",
"413 189 OFFCURVE",
"622 -1 OFFCURVE",
"891 -258 CURVE"
);
},
{
closed = 1;
nodes = (
"1522 -225 LINE",
"1236 237 LINE SMOOTH",
"1211 277 OFFCURVE",
"1190 311 OFFCURVE",
"1171 340 CURVE",
"1218 423 OFFCURVE",
"1267 519 OFFCURVE",
"1320 626 CURVE SMOOTH",
"1373 733 OFFCURVE",
"1431 851 OFFCURVE",
"1495 981 CURVE",
"1448 1008 LINE",
"1261 776 OFFCURVE",
"1000 505 OFFCURVE",
"817 340 CURVE",
"1020 175 OFFCURVE",
"1259 -46 OFFCURVE",
"1479 -258 CURVE"
);
},
{
closed = 1;
nodes = (
"2103 -225 LINE",
"1994 -52 LINE SMOOTH",
"1959 3 OFFCURVE",
"1927 55 OFFCURVE",
"1897 104 CURVE SMOOTH",
"1815 237 LINE SMOOTH",
"1790 277 OFFCURVE",
"1768 311 OFFCURVE",
"1749 340 CURVE",
"1841 507 OFFCURVE",
"1948 720 OFFCURVE",
"2073 981 CURVE",
"2025 1008 LINE",
"1836 772 OFFCURVE",
"1564 492 OFFCURVE",
"1395 340 CURVE",
"1595 177 OFFCURVE",
"1828 -38 OFFCURVE",
"2060 -258 CURVE"
);
},
{
closed = 1;
nodes = (
"493 1201 OFFCURVE",
"664 1263 OFFCURVE",
"887 1311 CURVE",
"887 1239 OFFCURVE",
"881 1170 OFFCURVE",
"872 1102 CURVE",
"1003 1197 OFFCURVE",
"1165 1258 OFFCURVE",
"1405 1313 CURVE",
"1405 1278 OFFCURVE",
"1404 1244 OFFCURVE",
"1403 1211 CURVE SMOOTH",
"1397 1112 LINE",
"1521 1197 OFFCURVE",
"1741 1264 OFFCURVE",
"2105 1327 CURVE",
"2105 1376 LINE",
"1770 1407 OFFCURVE",
"1514 1467 OFFCURVE",
"1389 1540 CURVE",
"1400 1476 OFFCURVE",
"1402 1416 OFFCURVE",
"1405 1360 CURVE",
"1162 1396 OFFCURVE",
"975 1455 OFFCURVE",
"862 1530 CURVE",
"874 1470 OFFCURVE",
"881 1416 OFFCURVE",
"885 1360 CURVE",
"642 1396 OFFCURVE",
"447 1462 OFFCURVE",
"346 1530 CURVE",
"362 1455 OFFCURVE",
"370 1385 OFFCURVE",
"370 1318 CURVE SMOOTH",
"370 1307 LINE SMOOTH",
"369 1237 OFFCURVE",
"363 1169 OFFCURVE",
"352 1102 CURVE"
);
}
);
width = 2349;
}
);
note = g47;
},
{
glyphname = g48;
lastChange = "2016-11-10 14:18:37 +0000";
layers = (
{
layerId = "0DE403EA-09CA-4A47-A866-F104DE4946EE";
paths = (
{
closed = 1;
nodes = (
"1473 -61 LINE",
"1024 658 OFFCURVE",
"785 1080 OFFCURVE",
"649 1479 CURVE",
"541 1366 OFFCURVE",
"419 1282 OFFCURVE",
"283 1233 CURVE",
"570 990 OFFCURVE",
"757 766 OFFCURVE",
"938 542 CURVE SMOOTH",
"1028 429 OFFCURVE",
"1192 218 OFFCURVE",
"1430 -92 CURVE"
);
}
);
width = 1790;
}
);
note = g48;
},
{
glyphname = g49;
lastChange = "2016-11-10 14:18:37 +0000";
layers = (
{
layerId = "0DE403EA-09CA-4A47-A866-F104DE4946EE";
paths = (
{
closed = 1;
nodes = (
"608 -229 LINE",
"633 664 OFFCURVE",
"673 1130 OFFCURVE",
"778 1507 CURVE",
"701 1491 OFFCURVE",
"625 1483 OFFCURVE",
"551 1483 CURVE SMOOTH",
"478 1483 OFFCURVE",
"406 1491 OFFCURVE",
"336 1507 CURVE",
"383 1336 OFFCURVE",
"418 1179 OFFCURVE",
"441 1036 CURVE SMOOTH",
"486 751 OFFCURVE",
"519 319 OFFCURVE",
"555 -229 CURVE"
);
}
);
width = 1114;
}
);
note = g49;
},
{
glyphname = g50;
lastChange = "2016-11-10 14:18:37 +0000";
layers = (
{
layerId = "0DE403EA-09CA-4A47-A866-F104DE4946EE";
paths = (
{
closed = 1;
nodes = (
"600 -229 LINE",
"624 232 OFFCURVE",
"679 545 OFFCURVE",
"778 784 CURVE",
"710 772 OFFCURVE",
"648 767 OFFCURVE",
"588 764 CURVE",
"617 1035 OFFCURVE",
"683 1300 OFFCURVE",
"780 1532 CURVE",
"703 1516 OFFCURVE",
"627 1508 OFFCURVE",
"551 1508 CURVE SMOOTH",
"478 1508 OFFCURVE",
"407 1513 OFFCURVE",
"338 1524 CURVE",
"423 1336 OFFCURVE",
"488 1073 OFFCURVE",
"539 764 CURVE",
"468 764 OFFCURVE",
"404 769 OFFCURVE",
"336 784 CURVE",
"449 511 OFFCURVE",
"495 279 OFFCURVE",
"547 -229 CURVE"
);
}
);
width = 1114;
}
);
note = g50;
},
{
glyphname = g51;
lastChange = "2016-11-10 14:18:37 +0000";
layers = (
{
layerId = "0DE403EA-09CA-4A47-A866-F104DE4946EE";
paths = (
{
closed = 1;
nodes = (
"1202 -215 LINE",
"941 164 OFFCURVE",
"769 429 OFFCURVE",
"670 600 CURVE",
"865 955 OFFCURVE",
"988 1193 OFFCURVE",
"1155 1530 CURVE",
"1116 1550 LINE",
"817 1169 OFFCURVE",
"477 786 OFFCURVE",
"250 575 CURVE",
"554 331 OFFCURVE",
"828 85 OFFCURVE",
"1167 -246 CURVE"
);
}
);
width = 1425;
}
);
note = g51;
},
{
glyphname = g52;
lastChange = "2016-11-10 14:18:37 +0000";
layers = (
{
layerId = "0DE403EA-09CA-4A47-A866-F104DE4946EE";
paths = (
{
closed = 1;
nodes = (
"817 702 LINE",
"704 849 OFFCURVE",
"624 969 OFFCURVE",
"541 1100 CURVE",
"576 1159 OFFCURVE",
"614 1225 OFFCURVE",
"653 1298 CURVE SMOOTH",
"692 1371 OFFCURVE",
"738 1455 OFFCURVE",
"791 1548 CURVE",
"745 1581 LINE",
"630 1448 OFFCURVE",
"484 1306 OFFCURVE",
"344 1183 CURVE SMOOTH",
"250 1100 LINE",
"391 993 OFFCURVE",
"518 893 OFFCURVE",
"774 666 CURVE"
);
},
{
closed = 1;
nodes = (
"817 -264 LINE",
"702 -116 OFFCURVE",
"618 12 OFFCURVE",
"541 133 CURVE",
"576 192 OFFCURVE",
"614 258 OFFCURVE",
"653 331 CURVE SMOOTH",
"692 404 OFFCURVE",
"738 489 OFFCURVE",
"791 584 CURVE",
"745 612 LINE",
"597 443 OFFCURVE",
"391 252 OFFCURVE",
"250 133 CURVE",
"386 34 OFFCURVE",
"530 -84 OFFCURVE",
"774 -301 CURVE"
);
}
);
width = 1081;
}
);
note = g52;
},
{
glyphname = g53;
lastChange = "2016-11-10 14:18:37 +0000";
layers = (
{
layerId = "0DE403EA-09CA-4A47-A866-F104DE4946EE";
paths = (
{
closed = 1;
nodes = (
"948 -229 LINE",
"966 140 OFFCURVE",
"988 428 OFFCURVE",
"1015 636 CURVE SMOOTH",
"1041 844 OFFCURVE",
"1075 1005 OFFCURVE",
"1118 1120 CURVE",
"1040 1107 OFFCURVE",
"967 1101 OFFCURVE",
"900 1101 CURVE SMOOTH",
"890 1101 LINE SMOOTH",
"819 1102 OFFCURVE",
"749 1108 OFFCURVE",
"678 1120 CURVE",
"765 880 OFFCURVE",
"807 627 OFFCURVE",
"862 94 CURVE SMOOTH",
"895 -229 LINE"
);
},
{
closed = 1;
nodes = (
"387 1147 OFFCURVE",
"573 1216 OFFCURVE",
"856 1280 CURVE",
"856 1323 LINE",
"615 1356 OFFCURVE",
"399 1429 OFFCURVE",
"266 1509 CURVE",
"280 1427 OFFCURVE",
"287 1349 OFFCURVE",
"287 1276 CURVE SMOOTH",
"287 1205 OFFCURVE",
"283 1135 OFFCURVE",
"274 1067 CURVE"
);
},
{
closed = 1;
nodes = (
"1524 1172 OFFCURVE",
"1517 1250 OFFCURVE",
"1517 1323 CURVE SMOOTH",
"1517 1394 OFFCURVE",
"1521 1464 OFFCURVE",
"1530 1532 CURVE",
"1415 1453 OFFCURVE",
"1219 1378 OFFCURVE",
"948 1319 CURVE",
"948 1276 LINE",
"1191 1244 OFFCURVE",
"1407 1169 OFFCURVE",
"1538 1090 CURVE"
);
}
